<?xml version="1.0" standalone="no"?>
<!DOCTYPE svg PUBLIC "-//W3C//DTD SVG 20010904//EN"
 "http://www.w3.org/TR/2001/REC-SVG-20010904/DTD/svg10.dtd">
<svg version="1.0" xmlns="http://www.w3.org/2000/svg"
 width="512.000000pt" height="512.000000pt" viewBox="0 0 512.000000 512.000000"
 preserveAspectRatio="xMidYMid meet">

<g transform="translate(0.000000,512.000000) scale(0.100000,-0.100000)"
fill="#000000" stroke="none">
<path d="M3725 4924 c-71 -168 -81 -185 -100 -180 -18 5 -25 -3 -45 -52 -24
-58 -55 -97 -78 -97 -12 0 -161 -330 -176 -389 -8 -34 17 -89 49 -106 32 -17
81 -15 111 5 14 9 36 40 49 70 18 41 29 55 44 55 24 0 37 36 -112 -325 l-95
-230 -208 -124 c-155 -92 -218 -124 -244 -125 -30 -1 -35 -5 -38 -26 -4 -44
104 -550 121 -563 9 -7 22 -37 30 -67 13 -52 77 -158 484 -803 l24 -38 -45
-20 -44 -19 85 -148 c47 -81 87 -148 88 -149 1 -2 65 -13 142 -25 l140 -21 99
68 c55 37 101 69 103 71 2 2 -41 74 -96 161 -55 87 -112 177 -127 201 l-26 42
-32 -16 c-26 -13 -32 -14 -39 -3 -4 8 -129 207 -278 444 -148 236 -268 431
-266 433 2 2 86 -23 187 -56 l183 -60 250 12 c138 7 252 11 254 10 2 -2 -20
-31 -48 -65 -44 -53 -52 -67 -49 -98 2 -26 10 -39 29 -50 45 -25 71 -8 173
113 l96 114 59 4 c74 5 107 27 133 86 18 40 19 52 9 89 l-11 43 112 131 112
131 -67 62 -68 61 24 30 25 29 67 -57 c36 -31 70 -57 73 -57 18 1 62 76 62
104 0 77 -98 211 -173 235 -47 16 -92 -4 -137 -60 -29 -37 -31 -42 -17 -57 15
-14 14 -18 -5 -44 -18 -26 -24 -28 -63 -23 -87 14 -140 -46 -117 -132 12 -44
12 -45 -23 -86 -57 -67 -41 -137 32 -137 23 0 40 11 73 46 25 27 47 43 56 40
22 -8 18 -17 -40 -87 l-54 -65 -366 -17 -366 -16 -193 64 c-105 36 -199 68
-207 71 -9 3 55 46 161 109 97 57 183 114 191 127 8 13 53 118 101 233 47 116
96 234 108 263 12 28 27 52 34 52 7 0 34 -9 60 -21 25 -11 48 -19 50 -17 1 1
32 71 67 155 l65 151 -69 31 -69 30 -11 -24 c-15 -32 -20 -31 -39 8 -31 64
-134 92 -194 53 -34 -23 -40 -16 -20 23 14 29 14 32 0 38 -11 4 -15 13 -11 28
3 12 2 25 -2 29 -15 16 -9 71 14 123 23 52 24 56 7 68 -16 12 -11 26 60 193
42 100 77 186 77 191 0 6 -6 11 -13 11 -7 0 -48 -83 -92 -186z m-255 -566 c0
-26 -75 -187 -83 -179 -5 5 9 49 30 100 35 83 53 110 53 79z m18 -111 c-43
-100 -45 -103 -54 -94 -4 4 4 30 16 59 13 29 31 72 41 96 11 24 23 41 28 38 5
-4 -9 -48 -31 -99z m1007 -747 c41 -46 -29 -116 -75 -75 -11 10 -20 31 -20 46
0 48 61 66 95 29z m-634 -1546 c18 -30 19 -38 8 -45 -20 -13 -259 -139 -263
-139 -3 0 -16 20 -30 45 -21 39 -23 47 -10 52 8 3 26 1 40 -6 39 -17 105 -13
142 9 29 18 50 50 66 103 8 26 22 21 47 -19z"/>
<path d="M1545 4698 c-80 -28 -135 -106 -135 -190 0 -63 -32 -87 -111 -85 -37
1 -64 -5 -87 -18 -34 -20 -72 -85 -72 -123 0 -14 -20 -35 -64 -67 -73 -52 -91
-85 -71 -132 22 -53 81 -58 143 -13 23 17 45 30 50 30 4 0 58 -125 121 -277
62 -153 124 -296 136 -318 20 -34 50 -56 194 -140 94 -54 167 -102 163 -106
-4 -3 -95 -36 -202 -73 l-195 -67 -295 16 c-162 8 -311 15 -330 15 -33 0 -39
6 -95 88 -33 48 -60 90 -60 94 0 4 27 26 60 49 33 23 62 44 64 45 2 2 -3 14
-12 28 -15 22 -25 24 -125 31 -102 7 -111 9 -122 31 -12 22 -14 23 -39 8 -14
-9 -39 -26 -54 -38 -26 -21 -28 -25 -15 -46 12 -19 11 -24 -9 -37 -12 -8 -42
-29 -67 -47 l-45 -32 52 -77 c29 -42 57 -76 62 -77 6 0 39 20 72 45 l62 44 33
-47 c19 -26 38 -53 42 -60 5 -8 -4 -26 -23 -48 -38 -43 -44 -109 -15 -165 22
-43 61 -61 153 -70 97 -10 90 -4 183 -141 29 -43 58 -78 63 -78 6 0 31 16 58
35 l47 35 -45 63 -46 62 52 3 c29 2 137 -1 241 -7 l187 -10 178 60 c98 32 181
58 186 56 4 -1 -120 -207 -277 -456 -157 -250 -287 -458 -288 -462 -2 -5 -21
-4 -43 1 -22 5 -40 8 -41 7 -81 -121 -153 -240 -149 -247 2 -4 -111 -185 -252
-401 -141 -217 -264 -412 -274 -434 -23 -50 -24 -136 -3 -178 30 -60 196 -307
206 -307 18 0 59 38 48 45 -5 3 -10 13 -10 22 0 23 743 1162 758 1163 12 0
162 220 162 238 0 5 -23 12 -51 16 -38 5 -49 10 -45 21 3 8 108 179 234 379
169 268 233 379 242 417 7 28 20 59 29 68 18 18 125 523 119 563 -2 18 -9 23
-33 23 -20 0 -95 38 -230 118 -110 64 -206 121 -213 125 -7 5 -69 145 -138
312 l-125 304 28 23 c23 19 34 22 63 16 104 -22 177 -1 233 70 25 30 32 49 35
99 l5 61 -62 -43 c-67 -47 -108 -55 -140 -26 -49 44 -35 96 42 151 31 22 56
43 57 47 0 9 -68 28 -100 27 -14 0 -38 -5 -55 -11z m-284 -2769 c6 -16 23 -39
37 -49 29 -24 18 -25 -60 -9 -83 16 -81 14 -53 58 31 45 57 45 76 0z m270 -32
c0 -4 -8 -23 -19 -42 -19 -32 -22 -33 -59 -24 -21 5 -42 9 -48 9 -5 1 8 7 29
15 22 7 48 23 60 34 20 20 38 24 37 8z m-95 -190 c5 -4 -696 -1094 -726 -1130
-6 -7 -126 167 -159 230 -17 34 -13 86 12 134 12 24 138 222 280 440 l258 395
165 -31 c90 -18 167 -35 170 -38z"/>
<path d="M2413 4409 c-30 -9 -32 -12 -35 -61 -2 -35 -8 -54 -20 -62 -25 -15
-52 3 -58 40 l-5 29 -48 -44 c-57 -53 -115 -164 -124 -238 -4 -40 -10 -53 -22
-53 -44 0 -57 -68 -19 -94 19 -14 79 -16 446 -16 269 0 430 4 442 10 47 25 45
81 -4 100 -18 7 -24 18 -29 59 -9 73 -53 157 -116 220 l-55 56 -5 -35 c-5 -27
-11 -36 -29 -38 -37 -5 -52 15 -52 69 0 47 -1 48 -37 58 -70 20 -72 18 -75
-56 -3 -62 -5 -68 -26 -71 -39 -6 -52 15 -52 79 0 65 -5 69 -77 48z"/>
<path d="M2133 3814 c17 -168 159 -314 335 -345 216 -38 440 129 459 343 l6
58 -403 0 -403 0 6 -56z"/>
<path d="M2350 3347 c0 -7 13 -67 29 -133 34 -136 71 -242 101 -284 17 -24 20
-44 20 -144 l0 -116 -220 0 -220 0 0 -45 0 -45 220 0 220 0 0 -95 0 -95 -221
0 -220 0 3 -42 3 -43 218 -3 217 -2 0 -85 0 -85 -244 0 c-209 0 -247 -2 -260
-16 -25 -24 -17 -46 22 -58 12 -4 22 -13 22 -19 0 -7 -34 -420 -74 -918 -50
-603 -72 -918 -67 -942 19 -82 81 -144 170 -167 90 -24 199 28 241 114 20 43
28 118 91 884 38 460 69 840 69 845 0 4 27 7 59 7 l60 0 5 -42 c3 -24 35 -405
71 -847 64 -791 65 -804 91 -852 99 -181 364 -138 408 66 5 24 -115 1583 -140
1808 -5 47 -3 57 9 57 17 0 47 26 47 40 0 5 -7 16 -16 24 -13 14 -51 16 -260
16 l-244 0 0 85 0 85 218 2 217 3 3 42 3 43 -218 2 -218 3 -3 93 -3 92 221 0
220 0 0 45 0 45 -220 0 -220 0 0 116 c0 101 3 120 21 145 34 49 68 144 103
290 l33 139 -183 0 c-143 0 -184 -3 -184 -13z"/>
<path d="M4008 1565 l-96 -64 -148 25 c-125 20 -150 22 -162 10 -11 -11 77
-102 559 -574 l573 -561 45 32 c24 18 44 36 44 40 0 6 -660 1067 -713 1148 -3
5 -49 -20 -102 -56z"/>
</g>
</svg>
