<svg height="56" width="122" xmlns="http://www.w3.org/2000/svg"><linearGradient id="a" x1="49.297%" x2="50%" y1="28.161%" y2="44.065%"><stop offset="0" stop-color="#cb6015"/><stop offset="1" stop-color="#e47e1a"/></linearGradient><linearGradient id="b" x1="34.061%" x2="48.163%" y1="48.493%" y2="64.136%"><stop offset="0" stop-color="#cb6016"/><stop offset="1" stop-color="#e47e1a"/></linearGradient><g fill="none"><path d="M9.616 6.515a7.598 7.598 0 0 0-2.911 2.84 7.598 7.598 0 0 0-2.911 2.842C1.5 13.402 0 15.727 0 18.48v16.615L1.764 36.3V18.05c0-1.292.442-2.41 1.147-3.358v22.383l1.765 1.206V15.64c0-.774.176-1.463.44-2.152.177-.43.442-.86.707-1.205v26.859l1.764 1.206V12.799c0-.516.088-.947.177-1.463.088-.258.176-.43.264-.689.177-.43.441-.86.706-1.205v31.68l1.765 1.206V9.958c0-.516.088-.946.176-1.463.088-.258.176-.43.265-.689.176-.43.44-.86.705-1.205v36.501l1.765 1.206V7.118c0-.517.088-.947.176-1.464.089-.258.177-.43.265-.689.353-.86.97-1.55 1.676-2.152-1.058.086-2.117.345-3 .861-1.146.603-2.205 1.636-2.91 2.841z" fill="url(#a)"/><path d="m36.461 47.4 1.248-1.213-16.47-12.14c-.416-.26-.749-.693-.998-1.04-.166-.26-.25-.433-.416-.693-.25-.607-.416-1.214-.416-1.908v-.52c-.665.693-1.164 1.474-1.414 2.34a6.862 6.862 0 0 0-.25 1.822c0 .607.084 1.3.333 1.907-.166.607-.333 1.214-.333 1.821 0 .694.084 1.3.333 1.908-.166.607-.333 1.214-.333 1.82 0 .694.084 1.301.333 1.908-.25.607-.333 1.214-.333 1.821 0 1.647.75 3.121 1.997 3.989l8.318 5.982 1.248-1.214-8.734-6.33c-.749-.52-1.248-1.473-1.331-2.427v-.087c.25.26.416.434.665.607l10.315 7.544 1.247-1.214-10.564-7.717c-.416-.26-.665-.607-.915-1.04-.25-.434-.499-.954-.499-1.561.167.173.416.347.583.52l12.227 8.93 1.248-1.213-12.477-9.018c-.167-.173-.333-.26-.5-.52-.249-.26-.415-.52-.582-.78-.25-.434-.416-.867-.416-1.388.25.26.416.434.666.607l14.224 10.405 1.248-1.214-14.557-10.578c-.333-.26-.582-.434-.749-.78l-.499-.78a5.154 5.154 0 0 1-.416-1.215c.25.26.5.434.749.694l16.22 11.966z" fill="url(#b)"/><path d="M19.029 0h-.262c-2.706 0-5.15 1.474-6.372 3.728a7.581 7.581 0 0 0-2.88 2.86A7.581 7.581 0 0 0 6.633 9.45a7.581 7.581 0 0 0-2.88 2.861C1.483 13.524 0 15.864 0 18.64v4.16c0-5.46 3.23-9.535 7.245-9.535h11.783c3.056 0 5.5 2.427 5.5 5.461 0 1.474-.611 2.948-1.833 4.075l-3.142 2.774c-1.31 1.214-2.095 2.86-2.095 4.681 0 .607.087 1.3.261 1.907a6.557 6.557 0 0 0-.261 1.82c0 .608.087 1.301.349 1.908-.175.607-.35 1.214-.35 1.82 0 .694.088 1.301.35 1.908-.175.607-.35 1.214-.35 1.82 0 .694.088 1.3.35 1.908-.262.606-.35 1.213-.35 1.82 0 1.647.786 3.12 2.096 3.988l1.134.78c-1.047-.867-1.658-2.34-1.658-3.814 0-1.127.349-2.254.873-2.948.087-.087.174-.26.349-.347l11.435-10.23c3.928-3.64 6.022-8.495 6.022-13.696C37.796 8.409 29.416 0 19.028 0zm1.746 26.788 3.142-2.775c1.484-1.473 2.357-3.294 2.357-5.288 0-3.988-3.23-7.195-7.245-7.195H6.72c.35-.26.786-.52 1.222-.694.262-.086.437-.173.699-.26.436-.086.96-.173 1.483-.173h8.904c4.627 0 8.38 3.728 8.38 8.322 0 2.254-.96 4.508-2.705 6.155l-5.15 4.682-.175.173c0-1.214.524-2.167 1.397-2.947zm-1.048 5.288c.262-.52.524-.954.96-1.3l5.15-4.682c2.095-1.994 3.317-4.595 3.317-7.369 0-5.548-4.539-10.056-10.125-10.056H9.514c.35-.26.786-.52 1.222-.693.262-.087.437-.174.699-.26.436-.087.96-.174 1.484-.174h6.022c6.198 0 11.26 5.028 11.26 11.183 0 3.121-1.309 6.069-3.665 8.236l-6.46 5.808-.698.694-.087.086c0-.52.174-1.04.436-1.473zm0 3.64c.087-.173.262-.346.35-.52.174-.173.261-.346.436-.52l7.245-6.501c2.706-2.514 4.19-5.895 4.19-9.536 0-7.11-5.849-12.917-13.007-12.917h-6.633c.349-.26.785-.52 1.222-.694.698-.26 1.396-.433 2.182-.433h3.142c7.943 0 14.315 6.328 14.315 14.044 0 3.9-1.658 7.542-4.539 10.316l-8.38 7.542-.96.867c0-.52.175-1.127.437-1.647zm10.824-4.594-10.213 9.103-1.135.953c0-.607.175-1.213.524-1.734.175-.26.262-.433.437-.606l.174-.174 9.34-8.409c3.317-3.12 5.15-7.195 5.15-11.616 0-8.67-7.158-15.778-15.887-15.778h-3.666c.96-.694 2.095-1.127 3.405-1.127h.261c9.428 0 17.022 7.629 17.022 16.905.087 4.768-1.833 9.189-5.412 12.483zm34.716-12.66h2.378v15.033h-2.378zm-6.37 4.483c0 2.55-1.954 4.308-4.926 4.484l4.84 5.538c.086.088.086.088.086.176 0 .176-.085.264-.255.264h-2.633l-4.586-5.539c-.255-.264-.34-.527-.34-.879v-.088c0-.967.595-1.582 1.529-1.582h1.019c2.038 0 2.888-1.143 2.888-2.286s-.85-2.286-2.888-2.286h-4.246c-.255 0-.425.176-.425.44v12.22h-2.378v-12.22c0-1.495 1.189-2.725 2.633-2.725h4.331c3.907 0 5.35 2.11 5.35 4.483zm26.328 6.945V18.462h2.378v12.483c0 1.758-.764 2.286-1.274 2.462-.51.175-1.444.175-2.463-1.231l-6.71-10.198v11.429H74.78V21.099c0-1.934.764-2.462 1.274-2.637.51-.176 1.443-.176 2.463 1.23l6.71 10.198zm15.542-5.01c2.378.35 4.672 1.318 4.587 4.131 0 3.077-2.633 4.747-5.776 4.747a9.775 9.775 0 0 1-5.86-1.934l1.274-1.934c1.359.967 3.058 1.583 4.586 1.583 1.869 0 3.398-.792 3.398-2.198 0-1.143-1.105-1.759-3.228-2.022l-1.104-.176c-2.208-.264-4.331-1.319-4.331-4.132 0-2.989 2.548-4.66 5.69-4.66 2.038 0 3.737.528 5.266 1.583l-1.19 1.934c-1.273-.879-2.632-1.318-4.076-1.318-1.868 0-3.227.79-3.227 2.197 0 1.231 1.104 1.759 2.972 2.022l1.02.176zm13.674 6.329 7.559-.176v2.286h-7.729c-1.443 0-2.633-1.231-2.633-2.726V21.1c0-1.495 1.19-2.725 2.633-2.725h7.644v2.285h-7.474c-.34 0-.51.264-.51.528v3.516h6.285v2.286h-6.284v3.692c0 .352.254.528.51.528z" fill="#eb9d00"/></g></svg>