<?xml version="1.0" standalone="no"?>
<!DOCTYPE svg PUBLIC "-//W3C//DTD SVG 20010904//EN"
 "http://www.w3.org/TR/2001/REC-SVG-20010904/DTD/svg10.dtd">
<svg version="1.0" xmlns="http://www.w3.org/2000/svg"
 width="400.000000pt" height="620.000000pt" viewBox="0 0 400.000000 620.000000"
 preserveAspectRatio="xMidYMid meet">

<g transform="translate(0.000000,620.000000) scale(0.100000,-0.100000)"
fill="#000000" stroke="none">
<path d="M1798 6020 c-20 -4 -47 -13 -60 -21 -36 -24 -108 -47 -166 -54 -77
-9 -201 -50 -242 -80 -18 -14 -40 -25 -47 -25 -8 0 -16 -6 -19 -14 -3 -8 -19
-19 -35 -25 -16 -5 -29 -14 -29 -20 0 -5 -14 -12 -30 -16 -17 -4 -43 -18 -57
-31 -14 -13 -38 -24 -54 -24 -19 0 -49 -18 -99 -60 -39 -33 -78 -60 -86 -60
-8 0 -19 -12 -25 -27 -6 -15 -31 -45 -56 -68 -47 -42 -83 -100 -83 -136 0 -11
-11 -34 -25 -51 -13 -16 -50 -79 -81 -141 -31 -62 -62 -123 -70 -137 -7 -14
-14 -33 -14 -43 0 -10 -5 -27 -11 -38 -5 -11 -10 -59 -9 -107 1 -141 0 -153
-14 -186 -29 -69 -35 -101 -26 -140 5 -25 5 -47 -2 -62 -8 -18 -8 -34 1 -61 6
-21 11 -47 10 -58 -3 -50 11 -218 20 -228 5 -7 12 -39 15 -72 3 -34 10 -73 15
-89 10 -24 7 -32 -19 -65 -26 -32 -31 -48 -33 -97 -4 -148 37 -377 78 -439 23
-33 23 -35 5 -35 -17 0 -18 -3 -8 -32 15 -44 30 -52 45 -25 12 21 13 20 7 -8
-17 -85 -17 -86 5 -107 l22 -20 6 21 c10 38 19 13 21 -60 2 -77 7 -93 22 -69
7 11 10 11 10 2 0 -7 -7 -15 -15 -18 -27 -11 -16 -24 20 -24 l35 0 0 135 0
135 28 7 c36 9 63 5 85 -14 14 -14 17 -35 17 -140 l0 -123 35 0 35 0 0 118 c0
119 -6 166 -20 157 -4 -3 -7 2 -6 11 2 32 -50 59 -115 59 l-59 0 0 62 0 63
-35 0 c-20 0 -36 -5 -37 -12 -3 -22 -5 -51 -8 -98 -1 -25 -5 -36 -7 -25 -3 11
-11 27 -19 35 -29 33 -44 91 -44 165 0 48 4 74 10 70 6 -3 10 -24 10 -45 0
-22 8 -59 17 -82 16 -40 18 -41 23 -18 4 17 13 25 30 25 13 0 25 6 28 13 3 9
-3 11 -24 6 -25 -6 -27 -5 -21 17 4 13 7 41 7 62 0 26 4 36 12 31 7 -4 8 -3 4
5 -4 6 -3 18 3 25 12 15 -2 58 -26 84 -7 7 -13 25 -13 39 0 21 2 24 15 13 12
-10 15 -10 15 3 0 8 -6 17 -12 20 -10 3 -10 7 -1 19 12 14 22 73 26 145 1 17
6 35 10 39 4 4 2 13 -3 20 -6 6 -10 16 -9 20 1 5 -1 25 -5 46 -10 48 0 78 27
79 12 0 16 3 10 6 -7 2 -13 11 -13 19 0 9 5 12 10 9 6 -3 10 3 10 14 0 10 -3
21 -7 24 -5 2 -3 3 3 1 16 -3 25 57 11 74 -14 17 -1 28 17 13 11 -9 15 -8 20
5 8 22 8 26 -3 19 -15 -9 -25 15 -12 28 9 9 14 8 21 -3 8 -13 10 -13 10 2 0 9
-4 20 -10 23 -15 9 -12 21 7 41 13 13 15 18 5 22 -16 5 3 32 23 32 6 0 17 12
24 28 10 25 10 26 -4 8 -18 -24 -31 -15 -16 12 6 11 7 23 3 27 -4 5 -2 5 5 1
20 -11 38 32 19 45 -11 8 54 44 73 40 11 -2 11 0 0 12 -12 12 -17 12 -34 1
-13 -9 -25 -10 -35 -4 -9 6 -10 10 -3 10 6 0 19 7 27 16 15 14 19 13 46 -6
l29 -21 15 23 c8 13 14 38 12 56 -1 18 1 35 6 38 5 3 6 9 4 13 -3 4 1 8 9 8 8
0 12 -4 9 -9 -10 -16 10 -8 33 14 13 12 23 16 23 9 0 -7 5 -9 11 -5 8 5 8 9
-1 14 -8 5 1 18 26 39 21 17 33 31 27 31 -6 0 -9 9 -6 20 6 22 18 26 28 10 3
-5 12 -10 18 -9 9 0 9 2 0 6 -19 7 -16 23 5 23 14 0 15 2 2 9 -8 6 -17 8 -20
6 -4 -2 -7 2 -7 9 0 14 14 16 33 3 7 -4 19 4 29 19 9 14 19 23 23 19 4 -3 2
-9 -3 -13 -11 -8 -48 -71 -43 -73 2 -1 15 -2 29 -3 24 -2 26 0 19 26 -6 20 -4
33 9 50 20 25 17 50 -4 42 -9 -4 -13 1 -12 15 1 12 6 20 12 19 5 -1 21 4 33
11 13 7 27 9 30 5 4 -4 1 -9 -5 -11 -7 -3 -13 -8 -13 -12 0 -9 71 -9 85 0 6 4
22 6 38 5 18 -1 27 3 27 13 0 11 3 12 11 4 6 -6 19 -9 28 -5 14 5 14 3 3 -11
-12 -14 -11 -15 11 -4 14 6 23 16 20 22 -2 5 3 1 11 -9 9 -11 16 -24 16 -29 0
-5 14 -7 30 -5 32 5 42 -7 13 -15 -15 -4 -14 -6 5 -12 16 -5 22 -14 19 -25 -5
-19 23 -24 36 -6 5 6 7 2 4 -11 -6 -28 9 -39 28 -23 12 10 15 10 17 -1 2 -27
5 -34 18 -62 8 -15 19 -26 26 -23 7 3 18 -2 25 -10 7 -9 21 -13 31 -11 10 3
18 1 18 -4 0 -4 6 -6 14 -3 8 3 19 -3 26 -15 13 -25 40 -28 40 -3 0 14 -2 15
-10 2 -5 -8 -10 -10 -10 -5 0 6 5 17 10 25 11 18 12 15 14 -67 1 -56 12 -76
26 -53 8 12 10 10 11 -10 1 -14 1 -37 0 -52 -1 -14 3 -29 9 -33 6 -3 10 -3 9
2 -3 10 8 40 26 73 8 15 10 32 6 39 -6 9 -10 5 -15 -13 -8 -32 -24 -27 -20 6
1 13 3 27 3 31 1 5 10 5 22 2 18 -6 19 -5 10 13 -13 25 -14 43 -1 22 5 -8 13
-11 17 -6 7 7 -15 29 -41 40 -7 3 -6 8 4 15 8 5 18 7 22 5 15 -9 8 3 -9 17
-11 10 -14 10 -9 2 4 -7 3 -13 -2 -13 -8 0 -8 14 -3 83 1 11 31 8 31 -3 0 -5
9 -10 20 -10 11 0 20 3 20 8 0 11 -43 47 -53 44 -5 -1 -6 2 -2 8 3 5 12 10 20
10 7 0 15 3 18 8 2 4 2 2 1 -5 -4 -18 33 -57 39 -41 3 7 6 -7 7 -32 1 -34 3
-40 10 -25 8 19 8 19 17 -3 l9 -24 13 28 c11 25 11 26 -5 13 -16 -12 -17 -12
-11 4 4 10 7 24 7 30 0 7 9 -1 20 -18 12 -18 20 -24 21 -15 0 8 4 4 10 -8 5
-13 7 -28 3 -33 -3 -5 0 -9 5 -9 6 0 11 -16 11 -35 0 -20 -5 -35 -12 -35 -6 0
-9 3 -5 6 11 11 -25 38 -52 39 -16 0 -25 6 -23 14 1 7 -2 10 -8 6 -6 -4 -4
-15 7 -30 20 -27 38 -33 30 -11 -4 10 -1 13 9 9 11 -4 14 -13 9 -27 -3 -11 -7
-26 -8 -32 -2 -7 -9 -19 -16 -27 -7 -9 -12 -24 -11 -34 1 -10 1 -31 0 -48 -1
-26 -3 -27 -10 -10 -6 14 -9 15 -10 5 0 -12 -3 -11 -11 3 -7 12 -7 22 -1 30
16 20 26 97 12 97 -7 0 -9 -8 -5 -20 4 -12 2 -20 -5 -20 -7 0 -9 -8 -5 -21 5
-15 4 -19 -4 -14 -7 4 -9 20 -5 42 5 26 4 34 -5 29 -6 -4 -11 -14 -11 -22 0
-8 -4 -13 -9 -10 -14 9 -23 -44 -10 -60 6 -8 15 -12 19 -9 5 3 12 -5 16 -17 8
-29 43 -64 45 -46 1 7 4 -3 8 -21 l6 -35 24 47 c22 42 51 63 51 36 0 -5 -4 -7
-10 -4 -6 4 -10 -6 -10 -22 1 -24 2 -25 11 -10 22 38 54 14 51 -38 -1 -19 1
-25 6 -17 12 18 45 -20 36 -42 -5 -14 -9 -15 -15 -4 -6 8 -9 1 -9 -22 0 -26 3
-31 10 -20 8 13 10 13 10 -2 0 -9 -5 -20 -11 -24 -6 -3 -9 -15 -6 -25 3 -11 0
-19 -5 -19 -7 0 -6 -5 1 -14 9 -11 8 -15 -4 -20 -9 -3 -13 -10 -10 -16 3 -5 2
-10 -3 -10 -15 0 -24 33 -12 40 8 5 6 9 -4 13 -9 4 -16 2 -16 -4 0 -6 -6 -7
-12 -3 -10 6 -10 5 -1 -7 14 -18 -5 -49 -31 -49 -9 0 -27 -12 -40 -27 -19 -22
-24 -24 -29 -10 -4 10 -3 17 1 17 5 0 6 17 4 37 -4 34 -3 36 12 24 14 -12 15
-10 9 20 -12 62 -20 84 -31 82 -5 -1 -12 9 -15 22 -5 28 9 34 17 8 2 -10 2 -1
-1 20 -3 24 -1 37 6 37 6 0 11 9 11 20 0 11 -5 20 -11 20 -5 0 -7 -5 -4 -10 3
-6 -1 -17 -9 -25 -14 -14 -17 -14 -34 3 -19 19 -19 19 -19 -5 -1 -14 3 -20 7
-14 5 9 10 8 20 -4 10 -12 10 -15 -4 -15 -15 0 -20 -19 -17 -65 2 -17 0 -17
-8 -5 -8 12 -11 9 -10 -15 0 -16 3 -24 6 -17 3 9 10 5 19 -13 13 -25 9 -59 -6
-50 -11 7 -21 -22 -14 -40 4 -8 11 -15 18 -15 6 0 5 -4 -3 -9 -9 -6 -12 -19
-8 -40 4 -17 3 -31 -2 -31 -4 0 -6 -12 -3 -26 3 -19 1 -25 -7 -20 -6 4 -11 3
-11 -3 0 -5 6 -11 13 -14 10 -4 10 -7 0 -18 -18 -18 -16 -34 2 -19 9 8 15 9
15 2 0 -6 -5 -14 -10 -17 -15 -9 -12 -51 3 -64 8 -6 16 -9 18 -7 2 2 5 -9 6
-25 1 -16 -1 -29 -5 -29 -4 0 -8 -24 -9 -53 -4 -107 -5 -117 -12 -117 -4 0 -5
-22 -1 -49 3 -28 3 -48 -2 -45 -9 6 -11 -7 -8 -48 1 -16 -3 -28 -9 -28 -6 0
-8 -6 -5 -14 3 -7 -8 -25 -25 -39 l-30 -25 24 -4 c12 -3 30 -1 37 3 10 5 15 3
15 -6 0 -8 -7 -17 -15 -20 -8 -3 -11 -12 -8 -20 3 -9 0 -15 -9 -15 -7 0 -17
-5 -21 -12 -4 -6 -3 -8 3 -5 12 8 46 -37 67 -88 18 -41 21 -91 7 -99 -5 -3 -8
-26 -7 -51 2 -24 -1 -42 -6 -39 -4 3 -8 12 -8 20 0 9 -5 24 -10 34 -10 18 -12
18 -38 3 -24 -14 -27 -21 -24 -51 l5 -35 -102 6 -101 7 -1 -52 c-1 -29 -4 -43
-6 -30 -4 22 -14 28 -26 16 -11 -11 15 -50 72 -109 18 -18 27 -22 37 -15 9 8
14 7 20 -1 5 -8 3 -9 -6 -4 -9 5 -11 4 -6 -3 13 -21 100 -14 136 11 44 29 46
39 11 60 -27 16 -29 16 -46 -3 -19 -22 -51 -26 -75 -10 -12 8 -11 10 5 10 12
0 26 5 33 12 22 22 87 20 108 -3 25 -27 26 -66 2 -72 -12 -4 -16 -11 -12 -21
3 -9 1 -22 -5 -30 -6 -7 -7 -17 -3 -22 4 -4 -1 -2 -10 5 -10 7 -23 11 -30 8
-8 -3 -6 -6 6 -6 12 -1 16 -6 12 -17 -3 -8 -2 -13 2 -10 11 7 8 -68 -3 -76 -6
-4 4 -21 23 -41 37 -39 31 -52 -28 -56 -19 -1 -54 -8 -77 -16 -24 -8 -48 -15
-54 -15 -15 0 -78 -30 -109 -51 -39 -26 -94 -29 -104 -4 -3 8 0 14 7 12 7 -1
11 4 9 11 -1 7 5 15 13 18 8 4 15 12 15 20 0 19 -10 18 -26 -3 -13 -17 -14
-17 -8 0 7 20 1 21 -27 7 -20 -11 -28 3 -9 15 6 4 5 11 -2 19 -11 11 -15 10
-25 -3 -7 -9 -13 -12 -13 -8 0 4 -10 3 -22 -3 -20 -10 -21 -9 -6 3 17 14 12
34 -9 31 -7 -1 -21 -2 -30 -3 -16 -1 -16 -3 -3 -11 13 -9 13 -10 0 -11 -8 -1
-21 -1 -27 0 -7 1 -10 -4 -7 -12 6 -17 -34 -69 -47 -61 -5 3 -9 2 -8 -3 1 -4
1 -15 0 -23 -1 -12 -5 -10 -17 5 -15 19 -15 19 -10 -8 3 -20 1 -27 -7 -24 -7
3 -21 -1 -30 -8 -16 -11 -16 -13 -2 -19 9 -3 13 -2 10 4 -3 6 -2 10 3 10 5 0
12 -9 15 -20 3 -11 1 -20 -3 -20 -5 0 -8 -9 -7 -20 1 -11 5 -20 9 -20 4 0 8
-7 8 -16 0 -10 -6 -14 -15 -10 -20 7 -19 4 10 -30 20 -23 22 -30 10 -32 -8 -2
-22 -20 -32 -40 -9 -20 -19 -41 -21 -46 -3 -5 0 -6 6 -2 7 4 10 -2 9 -15 -1
-12 -9 -24 -19 -27 -10 -2 -18 -8 -18 -13 0 -5 -7 -5 -17 -2 -11 4 -14 3 -9
-6 4 -6 16 -9 27 -6 12 4 19 2 19 -6 0 -7 -3 -9 -7 -6 -3 4 -15 0 -25 -10 -17
-15 -18 -15 -18 3 -1 18 -1 18 -16 -1 -14 -19 -15 -19 -21 3 -3 14 -11 21 -19
18 -7 -3 -20 1 -28 9 -8 8 -22 12 -31 9 -11 -5 -18 0 -22 16 -4 15 -8 18 -13
9 -6 -8 -11 -6 -19 9 -10 19 -9 21 6 15 12 -5 8 4 -12 25 -21 23 -32 28 -38
19 -5 -7 -6 -3 -2 11 5 16 2 22 -10 22 -8 0 -21 12 -27 28 -7 15 -13 28 -14
30 -3 6 -108 -60 -153 -97 -25 -19 -39 -37 -32 -39 7 -2 22 5 34 16 30 27 83
36 91 16 12 -31 5 -45 -29 -60 -25 -10 -41 -12 -54 -5 -13 8 -28 5 -56 -9 -40
-21 -64 -17 -44 6 16 19 5 18 -43 -7 -65 -33 -71 -9 -12 46 27 24 52 45 56 45
5 0 45 34 90 76 49 45 88 74 98 71 12 -3 15 3 12 30 -2 18 -8 36 -13 39 -14 8
-10 24 6 24 17 0 19 9 5 30 -8 12 -12 13 -19 2 -6 -11 -10 -10 -15 4 -4 10 -4
15 0 11 4 -4 13 2 21 13 12 17 11 23 -8 50 -13 16 -20 33 -16 37 4 3 7 1 7 -5
0 -7 4 -12 10 -12 10 0 -23 79 -37 89 -5 3 -16 35 -23 71 -7 36 -26 92 -42
125 -15 33 -28 69 -28 80 0 16 -2 17 -9 6 -7 -11 -10 -9 -14 10 -2 13 -5 -20
-6 -73 -1 -71 -4 -98 -13 -98 -7 0 -30 -5 -51 -11 -38 -10 -42 -29 -7 -29 22
0 37 -37 22 -52 -11 -11 -85 -33 -172 -52 l-55 -11 110 -3 c61 -2 128 2 150 8
22 6 48 14 58 16 13 4 21 -4 32 -30 18 -42 19 -66 4 -66 -6 0 -23 -8 -37 -19
-15 -10 -70 -41 -122 -69 -52 -27 -122 -64 -155 -82 -103 -55 -188 -96 -250
-121 -77 -30 -161 -91 -187 -135 -11 -19 -29 -39 -39 -45 -16 -8 -19 -21 -19
-84 0 -72 1 -75 23 -75 13 0 32 -9 42 -20 15 -17 17 -29 10 -77 -13 -100 -12
-106 15 -113 18 -4 27 -15 33 -43 14 -56 4 -70 -41 -62 -27 4 -42 2 -50 -8
-18 -21 -28 -203 -12 -222 11 -13 11 -23 0 -55 -13 -38 -8 -83 16 -168 5 -18
2 -24 -15 -29 -20 -5 -21 -10 -21 -192 0 -169 2 -189 20 -216 11 -16 20 -37
20 -46 0 -9 6 -19 14 -22 19 -7 28 -81 16 -125 -11 -42 -47 -72 -56 -48 -3 8
-3 20 1 26 3 5 1 10 -4 10 -8 0 -11 -79 -11 -245 l0 -245 534 0 c294 0 537 4
540 8 2 4 1 14 -4 22 -6 9 -3 18 8 26 13 9 14 15 5 26 -7 8 -12 23 -11 33 1
27 -19 75 -32 75 -5 0 -10 -16 -10 -35 0 -19 -5 -35 -11 -35 -6 0 -9 19 -6 48
4 54 13 75 28 66 6 -3 21 -3 35 0 27 7 33 40 9 50 -10 3 -15 -1 -15 -13 0 -16
-7 -19 -40 -18 -22 1 -40 7 -40 13 0 12 36 27 58 25 15 -2 15 1 0 34 -9 20 -8
31 2 51 11 20 12 29 2 44 -16 25 -15 57 1 64 6 2 3 4 -8 4 -43 -2 -63 3 -85
22 -13 11 -18 20 -12 20 7 0 12 5 12 10 0 6 -9 10 -20 10 -11 0 -20 -7 -20
-15 0 -8 -4 -15 -10 -15 -5 0 -10 4 -10 9 0 5 -14 14 -30 20 -28 9 -42 31 -20
31 6 0 10 4 10 9 0 5 -9 7 -20 4 -25 -7 -26 7 0 35 11 11 16 24 10 27 -5 3
-14 -3 -20 -14 -8 -16 -17 -19 -40 -14 -36 7 -41 -14 -10 -42 11 -10 20 -28
20 -41 0 -12 12 -32 26 -43 15 -12 21 -21 14 -21 -7 0 -10 -6 -7 -14 4 -11 -2
-12 -28 -6 -18 4 -39 4 -46 -1 -18 -11 -79 0 -100 17 -19 17 -55 18 -64 3 -4
-6 -13 -8 -20 -5 -14 5 -30 -27 -21 -42 2 -4 1 -14 -5 -22 -7 -12 -9 -10 -9 7
0 27 -7 31 -56 38 -84 12 -90 15 -102 49 -17 45 -15 56 9 83 19 19 20 25 9 38
-7 9 -24 15 -38 13 -32 -4 -69 41 -55 67 6 9 13 16 16 16 11 -2 10 8 -3 39
-14 33 -27 38 -36 15 -10 -25 -24 -17 -23 13 0 15 -4 42 -9 60 -6 17 -7 32 -2
32 7 0 8 24 1 78 0 6 -5 12 -10 12 -5 0 -7 -10 -4 -21 5 -19 4 -20 -15 -10
-18 10 -21 18 -17 54 14 135 14 203 0 227 -8 14 -17 32 -21 40 -4 8 -14 23
-22 33 -10 11 -15 35 -15 65 2 69 6 86 23 94 23 10 70 9 70 -2 0 -5 11 -10 24
-10 19 0 29 11 50 55 25 53 28 56 61 53 21 -1 35 -7 35 -15 0 -25 40 -93 55
-93 11 0 15 11 15 40 0 38 -1 40 -32 40 -28 1 -30 2 -15 11 9 6 26 8 36 4 11
-3 22 -1 26 5 3 5 19 8 36 5 24 -4 29 -2 29 15 0 17 7 20 40 20 28 0 40 -4 40
-14 0 -8 16 -35 35 -60 19 -26 35 -50 35 -56 0 -5 9 -15 20 -23 29 -20 60 -85
60 -123 0 -18 6 -34 12 -36 19 -7 40 20 33 41 -4 13 0 23 13 30 14 7 17 18 14
45 -3 22 0 36 7 36 6 0 11 -13 11 -30 0 -18 5 -30 13 -30 8 0 20 -11 27 -25 7
-13 21 -27 32 -31 10 -3 18 -9 18 -15 0 -5 10 -8 22 -6 17 1 24 -4 26 -21 2
-12 12 -27 23 -32 27 -15 24 -30 -6 -30 -14 0 -25 -4 -25 -10 0 -5 15 -10 34
-10 23 0 36 -6 40 -18 12 -29 50 -82 61 -82 8 0 68 -88 83 -121 1 -3 -9 -11
-24 -18 -19 -8 -23 -15 -16 -24 17 -21 75 -20 98 1 31 29 83 24 126 -12 20
-17 46 -38 59 -47 17 -11 22 -26 23 -60 l1 -44 -45 2 c-25 2 -54 4 -65 5 -11
0 -27 -2 -36 -6 -12 -5 -18 -1 -23 18 -4 17 -13 26 -26 26 -14 0 -20 7 -20 24
0 27 -16 36 -66 36 -19 0 -34 4 -34 9 0 6 -14 18 -31 28 -32 18 -109 123 -109
148 0 8 -9 17 -21 20 -12 4 -30 16 -40 26 -39 39 -89 11 -89 -51 0 -17 -4 -18
-26 -9 -15 5 -35 7 -45 4 -12 -4 -21 -1 -25 9 -3 9 -10 13 -15 10 -5 -2 -17
-1 -26 4 -10 5 -24 7 -30 5 -15 -6 -17 -49 -3 -58 6 -3 10 -17 10 -29 0 -13 7
-29 15 -36 8 -7 15 -21 15 -31 0 -10 11 -26 25 -35 14 -9 25 -25 25 -36 0 -32
63 -88 99 -88 20 0 35 -7 43 -20 7 -11 16 -20 20 -20 4 0 31 -25 60 -55 29
-30 58 -55 64 -55 6 0 19 -9 30 -21 22 -24 27 -70 7 -62 -12 5 -17 17 -14 35
0 5 -6 8 -14 8 -19 0 -37 -35 -33 -64 1 -13 -3 -31 -11 -40 -12 -14 -11 -16 7
-16 12 0 37 -19 60 -47 35 -40 38 -48 26 -60 -19 -19 -18 -52 1 -60 21 -8 28
1 28 37 0 26 5 31 33 36 38 7 64 -3 43 -17 -12 -8 -11 -12 3 -22 11 -8 15 -21
12 -34 -8 -29 10 -36 32 -12 18 20 18 20 36 -13 9 -18 17 -27 18 -20 0 7 14
12 35 12 28 0 35 -4 35 -19 0 -12 9 -21 24 -25 14 -3 28 -15 31 -26 4 -11 10
-18 15 -15 5 3 16 -3 26 -12 10 -10 27 -23 38 -28 15 -8 21 -21 22 -48 1 -21
6 -43 13 -50 9 -9 291 -13 1186 -15 l1175 -2 0 35 c0 23 7 41 20 52 19 17 20
29 19 298 0 177 -4 272 -9 258 -11 -26 -14 -27 -41 -13 -21 12 -25 40 -7 58 6
6 12 33 13 59 2 57 13 102 30 123 9 11 13 114 14 407 l2 391 -48 22 c-26 12
-127 53 -223 90 -351 137 -417 170 -432 211 -10 29 -11 29 -29 13 -18 -16 -22
-16 -54 -1 -24 11 -40 29 -50 55 -25 62 -73 147 -82 146 -4 -1 -22 -25 -40
-55 -17 -30 -36 -59 -41 -65 -6 -6 -17 -25 -26 -42 -9 -18 -21 -32 -26 -32 -5
0 0 17 12 38 61 106 78 145 67 159 -6 7 -16 10 -22 6 -6 -3 -7 -1 -3 6 6 8 12
9 20 2 7 -6 16 -8 20 -4 4 4 -3 16 -16 26 l-23 18 22 -6 c13 -3 31 -1 40 5 16
9 14 10 -9 8 -23 -3 -31 2 -27 15 0 1 2 10 4 20 6 32 15 48 23 43 4 -2 14 0
22 6 12 8 12 9 -2 4 -22 -7 -35 13 -17 25 11 7 11 12 2 27 -14 24 -1 47 23 38
17 -6 17 -6 1 12 -9 10 -15 21 -13 23 3 2 7 17 10 33 6 32 15 46 17 25 1 -8 1
-17 0 -21 0 -5 3 -8 9 -8 11 0 29 61 22 74 -3 5 -8 3 -11 -5 -11 -26 -29 -20
-25 9 2 15 5 43 7 62 2 20 7 41 11 48 7 11 1 16 -16 13 -12 -2 -10 17 2 24 17
10 11 36 -15 67 -14 16 -25 37 -25 46 1 9 7 3 15 -15 14 -32 59 -63 92 -63 10
0 24 12 30 27 7 15 12 27 10 27 -1 1 -15 8 -32 16 -29 15 -30 18 -33 94 -3 95
9 116 70 116 24 0 37 4 33 10 -3 6 -1 10 5 10 6 0 3 11 -6 26 -15 22 -23 25
-60 22 -23 -1 -40 0 -37 5 2 4 12 7 22 7 13 0 20 12 27 47 8 43 34 73 34 39 0
-8 5 -18 12 -22 8 -5 9 0 5 16 -3 13 1 36 9 51 7 15 14 39 14 54 0 14 6 25 13
25 6 0 12 10 13 23 0 12 3 63 6 113 4 60 1 103 -7 127 -7 21 -9 40 -4 43 5 3
9 11 9 17 0 7 -4 6 -10 -3 -7 -11 -10 -7 -10 18 0 20 -6 35 -15 38 -8 4 -12
10 -9 15 3 5 -2 9 -11 9 -9 0 -13 4 -10 10 3 5 0 7 -8 4 -9 -3 -16 3 -20 15
-6 26 -42 28 -56 4 -13 -23 -14 -12 -1 21 6 18 6 26 -1 26 -6 0 -7 5 -4 10 3
6 2 10 -3 10 -19 0 -22 48 -5 81 12 23 13 34 5 37 -15 5 -16 42 -2 42 6 0 10
9 10 19 0 11 5 23 10 26 10 6 14 -7 11 -33 -2 -10 5 -9 22 4 20 16 22 21 10
32 -15 15 -18 62 -3 62 10 0 1 32 -11 40 -5 3 -6 16 -2 29 4 17 8 20 15 9 7
-9 8 -7 3 7 -23 64 14 107 61 69 10 -8 13 -13 7 -9 -8 4 -13 0 -13 -9 0 -24
12 -46 21 -40 5 3 7 10 3 15 -3 5 -1 16 5 23 6 7 8 22 4 32 -6 16 -5 17 9 4
11 -10 13 -23 8 -47 -8 -33 -7 -35 20 -37 12 -1 14 -12 12 -49 -3 -37 0 -47
11 -47 10 0 13 -7 10 -20 -3 -11 -1 -20 5 -20 13 0 25 -56 23 -114 -1 -27 2
-54 7 -60 13 -16 8 -586 -6 -696 -16 -124 -50 -287 -69 -327 -8 -18 -13 -38
-10 -45 2 -7 -2 -26 -10 -41 -8 -15 -11 -32 -8 -37 11 -17 102 -12 121 7 15
16 15 17 -2 24 -16 6 -14 8 8 8 32 1 37 14 39 106 2 73 13 119 48 195 45 101
85 343 70 425 -5 28 -12 73 -15 100 -4 28 -12 57 -19 65 -17 21 -25 47 -17 54
3 4 7 24 7 46 1 24 9 48 21 61 17 18 19 35 18 133 -1 61 -3 151 -5 199 -2 49
-1 91 2 93 8 5 3 152 -6 179 -4 11 -13 36 -20 55 -8 19 -14 49 -14 65 1 44 -7
97 -19 125 -5 14 -16 45 -23 69 -7 24 -26 63 -41 88 -16 25 -30 57 -32 71 -2
15 -18 53 -35 86 -17 32 -31 64 -31 70 0 7 -15 27 -32 44 -48 46 -79 80 -127
140 -34 41 -49 52 -73 52 -16 0 -27 4 -24 8 3 5 -8 24 -24 43 -16 19 -29 40
-30 47 0 21 -50 94 -89 132 -38 38 -151 82 -243 95 -26 4 -49 13 -51 19 -3 8
-17 11 -36 8 -22 -3 -33 0 -37 12 -3 9 -16 16 -28 16 -12 0 -49 20 -82 44 -33
24 -71 47 -84 51 -41 13 -133 12 -161 -1 -20 -10 -31 -10 -55 1 -60 26 -109
35 -143 25 -22 -6 -40 -6 -52 1 -27 14 -138 26 -181 19z m-573 -950 c-3 -5
-10 -10 -16 -10 -5 0 -9 5 -9 10 0 6 7 10 16 10 8 0 12 -4 9 -10z m150 -8 c-3
-3 -11 0 -18 7 -9 10 -8 11 6 5 10 -3 15 -9 12 -12z m-205 -9 c-1 -18 -18 -35
-24 -24 -4 6 -2 11 4 11 6 0 8 5 5 10 -3 6 -1 10 4 10 6 0 11 -3 11 -7z m24
-8 c3 -8 1 -15 -4 -15 -6 0 -10 7 -10 15 0 8 2 15 4 15 2 0 6 -7 10 -15z m146
5 c0 -5 -7 -10 -15 -10 -8 0 -15 5 -15 10 0 6 7 10 15 10 8 0 15 -4 15 -10z
m-190 -55 c0 -9 6 -12 18 -9 14 5 14 4 -2 -6 -15 -10 -20 -9 -27 1 -12 19 -11
29 1 29 6 0 10 -7 10 -15z m920 -25 c13 -9 13 -10 0 -10 -8 0 -22 5 -30 10
-13 9 -13 10 0 10 8 0 22 -5 30 -10z m-10 -30 c0 -5 -2 -10 -4 -10 -3 0 -8 5
-11 10 -3 6 -1 10 4 10 6 0 11 -4 11 -10z m84 -35 c3 -8 1 -15 -4 -15 -6 0
-10 7 -10 15 0 8 2 15 4 15 2 0 6 -7 10 -15z m-436 -25 c-1 -31 -18 -32 -18
-1 0 15 8 31 16 31 1 0 2 -13 2 -30z m-665 -16 c-7 -18 -10 -18 -22 5 -9 16
-8 18 8 14 12 -3 17 -11 14 -19z m1120 -13 c-4 -15 -8 -19 -13 -10 -5 6 -3 18
3 24 16 17 17 14 10 -14z m-1119 -29 l-36 -35 -14 24 c-7 13 -13 18 -14 11 0
-7 -4 -10 -10 -7 -6 4 -5 11 2 19 11 11 15 10 25 -3 9 -11 12 -12 13 -3 0 8 7
11 19 7 13 -4 20 0 24 16 3 12 10 18 17 14 7 -4 -2 -20 -26 -43z m-136 -35
c-2 -6 7 -22 20 -35 22 -22 22 -42 0 -42 -5 0 -8 7 -4 15 4 10 -1 15 -14 15
-20 0 -25 15 -14 44 7 19 16 21 12 3z m1236 -62 c-4 -8 -8 -15 -10 -15 -2 0
-4 7 -4 15 0 8 4 15 10 15 5 0 7 -7 4 -15z m-53 -36 l-10 -34 4 35 c4 45 4 44
11 38 3 -3 1 -21 -5 -39z m99 -39 c5 0 13 -15 18 -32 5 -18 14 -32 20 -31 6 2
9 -8 6 -23 -3 -18 -1 -23 7 -18 8 4 9 3 5 -5 -9 -14 -37 4 -35 23 3 21 -23 76
-36 76 -9 0 -11 7 -7 23 5 18 7 19 10 5 2 -10 8 -18 12 -18z m170 10 c-20 -13
-33 -13 -25 0 3 6 14 10 23 10 15 0 15 -2 2 -10z m-80 -41 c0 -3 -7 -6 -15 -6
-8 0 -11 5 -8 10 4 6 -3 8 -16 4 -18 -4 -20 -3 -11 8 9 11 16 12 31 2 10 -6
19 -14 19 -18z m20 21 c0 -5 -2 -10 -4 -10 -3 0 -8 5 -11 10 -3 6 -1 10 4 10
6 0 11 -4 11 -10z m20 -35 c7 -8 16 -12 21 -9 5 3 6 -2 2 -12 -5 -15 -7 -15
-15 0 -5 9 -16 16 -23 16 -8 0 -15 5 -15 10 0 15 16 12 30 -5z m-34 -45 c6 6
10 4 11 -8 7 -70 7 -112 2 -112 -11 0 -18 27 -12 49 4 15 1 21 -10 21 -9 0
-15 8 -15 18 1 9 -2 28 -6 42 l-7 25 13 -23 c9 -15 17 -19 24 -12z m1064 -124
c0 -11 -19 -15 -25 -6 -3 5 1 10 9 10 9 0 16 -2 16 -4z m-1296 -42 c4 -9 4
-19 1 -22 -2 -3 -8 3 -11 12 -5 14 -9 15 -15 4 -7 -10 -9 -9 -9 5 0 22 26 22
34 1z m1073 -276 c-3 -8 -6 -5 -6 6 -1 11 2 17 5 13 3 -3 4 -12 1 -19z m-533
-3 c-4 -8 -11 -15 -16 -15 -6 0 -5 6 2 15 7 8 14 15 16 15 2 0 1 -7 -2 -15z
m546 -112 c0 -3 -7 0 -15 7 -8 7 -15 9 -15 4 0 -4 -5 -3 -11 3 -8 8 -7 16 2
31 13 20 14 20 26 -10 7 -16 13 -33 13 -35z m-675 7 c-8 -13 8 -13 21 0 6 6
18 8 28 4 14 -5 13 -10 -11 -30 -31 -27 -52 -30 -73 -11 -12 10 -12 9 -2 -5
11 -14 8 -19 -16 -37 -16 -11 -32 -18 -36 -14 -3 3 -6 1 -6 -5 0 -7 -9 -12
-20 -12 -11 0 -20 4 -20 8 0 5 9 17 20 27 15 14 20 15 20 4 0 -12 2 -12 9 1 6
8 7 18 4 24 -3 5 -2 6 4 3 5 -4 23 7 38 23 27 29 53 41 40 20z m640 -18 c-3
-3 -11 0 -18 7 -9 10 -8 11 6 5 10 -3 15 -9 12 -12z m-521 -48 c25 -9 20 -51
-6 -60 -13 -5 -26 -7 -30 -6 -13 3 -9 -43 5 -57 10 -11 8 -13 -13 -8 -14 3
-45 9 -68 13 -24 4 -46 13 -49 21 -4 11 -8 11 -13 3 -5 -8 -9 -7 -13 5 -4 9
-3 14 3 10 6 -3 13 1 16 9 3 9 12 16 19 16 7 0 24 9 39 21 15 11 39 25 54 29
36 11 38 11 56 4z m-239 -64 c3 -5 2 -10 -4 -10 -5 0 -13 5 -16 10 -3 6 -2 10
4 10 5 0 13 -4 16 -10z m32 -76 c-3 -3 -12 -4 -19 -1 -8 3 -5 6 6 6 11 1 17
-2 13 -5z m73 -6 c0 -4 6 -5 13 -2 7 2 24 0 38 -5 21 -9 22 -10 4 -12 -21 -1
-22 -1 -58 5 -12 3 -30 5 -39 5 -10 1 -18 5 -18 11 0 5 13 8 30 7 16 -1 30 -5
30 -9z m-483 -224 c-3 -3 -12 -4 -19 -1 -8 3 -5 6 6 6 11 1 17 -2 13 -5z m770
-431 c-2 -16 -4 -3 -4 27 0 30 2 43 4 28 2 -16 2 -40 0 -55z m-774 -40 c-7 -2
-21 -2 -30 0 -10 3 -4 5 12 5 17 0 24 -2 18 -5z m606 -90 c6 -12 20 -25 32
-28 11 -4 18 -9 16 -12 -19 -18 -78 55 -76 94 0 12 3 9 8 -8 5 -14 13 -35 20
-46z m82 50 c13 -16 12 -17 -3 -4 -10 7 -18 15 -18 17 0 8 8 3 21 -13z m59
-58 l0 -45 -37 2 c-37 1 -37 1 -5 5 29 4 32 7 32 38 0 24 -5 35 -17 38 -14 4
-12 5 5 6 20 1 22 -4 22 -44z m-657 -39 c18 -3 18 -4 -3 -3 -19 2 -25 8 -26
27 -1 20 0 21 3 3 2 -12 14 -24 26 -27z m-1203 -146 c0 -5 -4 -10 -10 -10 -5
0 -10 5 -10 10 0 6 5 10 10 10 6 0 10 -4 10 -10z m4 -166 c15 -37 26 -68 24
-69 -2 -1 -18 -10 -35 -19 -18 -9 -40 -28 -49 -41 -22 -33 -130 -118 -172
-135 -18 -7 -40 -22 -50 -34 -20 -26 -87 -66 -108 -66 -9 0 -40 -20 -68 -45
-29 -25 -62 -45 -73 -45 -10 0 -34 15 -52 34 -30 31 -36 33 -64 25 -77 -22
-129 0 -106 44 21 37 87 87 159 118 162 70 466 232 529 280 13 11 27 19 31 19
4 0 20 -30 34 -66z m2188 20 c-9 -16 -10 -14 -9 8 1 15 6 23 11 18 4 -4 4 -16
-2 -26z m-1169 -17 c-4 -6 1 -8 11 -4 13 5 17 3 13 -7 -3 -7 0 -19 6 -26 9 -9
9 -11 1 -7 -7 4 -14 -3 -18 -18 -4 -14 -13 -25 -22 -25 -9 0 -13 5 -9 13 3 6
-2 2 -11 -10 -19 -26 -70 -33 -60 -8 3 8 1 15 -5 15 -5 0 -12 -6 -15 -13 -2
-7 -13 -13 -23 -14 -19 -2 -22 12 -8 35 5 7 3 12 -5 12 -10 0 -9 3 2 9 8 6 18
7 22 5 4 -3 8 -1 8 5 0 10 38 27 53 23 4 -1 7 2 7 7 0 5 8 11 18 13 30 7 41 5
35 -5z m-248 -117 c3 -5 1 -10 -4 -10 -6 0 -11 5 -11 10 0 6 2 10 4 10 3 0 8
-4 11 -10z m83 -25 c113 -9 237 -32 235 -43 -2 -7 6 -12 17 -12 14 0 20 -7 20
-21 0 -19 -1 -19 -16 -5 -20 20 -28 20 -20 1 3 -10 -1 -15 -12 -15 -13 0 -14
-2 -4 -9 10 -6 7 -12 -12 -25 -14 -9 -25 -20 -24 -24 1 -4 -2 -22 -6 -41 -6
-26 -10 -30 -18 -20 -7 11 -11 11 -15 2 -3 -8 -14 -11 -30 -7 -18 5 -24 3 -19
-4 4 -7 -1 -10 -14 -7 -11 2 -20 -1 -20 -7 0 -7 -4 -7 -12 -1 -7 6 -33 11 -58
12 -35 1 -48 -3 -58 -19 -8 -13 -8 -20 -1 -20 5 0 7 -5 3 -12 -5 -7 -2 -9 8
-6 9 4 15 0 15 -8 0 -8 -6 -13 -14 -10 -17 7 -18 -30 0 -38 6 -3 1 -3 -12 0
-16 4 -21 3 -17 -5 5 -7 -3 -11 -23 -11 -16 0 -31 6 -34 13 -2 6 -8 9 -12 5
-4 -4 0 -15 9 -24 13 -12 28 -15 59 -11 23 3 34 3 25 0 -15 -4 -16 -8 -6 -26
6 -12 11 -24 10 -27 -1 -3 9 -4 22 -2 12 2 34 -2 49 -7 17 -7 28 -7 32 -1 4 6
12 4 21 -5 18 -17 30 -19 39 -5 3 6 11 10 16 10 6 0 8 -4 4 -9 -3 -5 -1 -12 5
-16 5 -3 10 -1 10 4 0 6 7 11 15 11 8 0 15 5 15 10 0 6 4 10 10 10 13 0 3 -64
-11 -69 -26 -8 15 -18 43 -10 25 7 28 6 18 -6 -7 -8 -17 -12 -22 -9 -6 4 -14
0 -19 -7 -8 -12 -11 -12 -19 1 -6 9 -10 10 -10 3 0 -6 4 -14 9 -17 5 -4 4 -16
-2 -30 -7 -13 -14 -23 -18 -21 -3 2 -6 -3 -6 -11 0 -8 6 -13 13 -10 8 3 11 0
8 -8 -3 -8 -14 -12 -24 -9 -26 7 -57 -41 -40 -62 11 -13 10 -14 -5 -9 -13 5
-16 4 -11 -4 4 -7 1 -19 -8 -27 -16 -17 -51 -21 -41 -5 6 9 -10 14 -42 13 -7
-1 -13 3 -13 9 0 5 -15 6 -35 2 -24 -4 -35 -2 -35 5 0 7 -4 10 -8 7 -5 -3 -16
4 -26 15 -10 13 -25 19 -36 16 -11 -3 -21 1 -24 9 -3 8 -12 14 -21 14 -17 0
-20 27 -6 50 14 22 2 31 -22 18 -20 -10 -21 -10 -8 5 14 18 7 52 -9 42 -6 -4
-8 -10 -6 -14 3 -3 -4 -7 -15 -7 -19 0 -18 1 3 19 16 13 19 20 11 24 -7 2 -13
9 -13 15 0 15 -27 38 -44 38 -11 0 -13 8 -9 35 5 29 3 35 -12 35 -15 0 -15 -3
-5 -15 9 -11 10 -19 3 -26 -7 -7 -14 -5 -23 6 -11 13 -10 15 6 10 10 -3 6 1
-11 9 -17 8 -32 25 -36 40 -4 14 -3 24 1 21 5 -3 11 -1 14 4 4 5 -3 12 -14 16
-11 3 -20 13 -20 21 0 8 -8 14 -17 14 -15 0 -15 1 1 13 10 8 19 24 20 38 1 14
7 23 15 21 7 -1 10 2 7 7 -3 5 1 15 10 22 13 10 20 10 36 0 22 -13 34 -9 23 8
-3 6 -11 9 -16 6 -5 -4 -9 -4 -9 -1 0 2 -3 13 -7 23 -6 15 -4 16 8 6 16 -13
61 -14 53 -1 -3 4 -12 4 -22 1 -12 -4 -9 2 8 19 19 18 28 22 39 14 11 -8 13
-8 8 1 -10 16 38 47 55 37 10 -6 10 -5 0 8 -11 14 -11 20 0 37 14 23 45 24 70
3 8 -6 18 -9 21 -5 4 3 7 1 7 -7 0 -10 4 -10 17 1 9 8 14 9 10 3 -4 -7 -1 -17
7 -23 10 -9 13 -5 12 19 -1 19 -5 28 -13 26 -7 -3 -15 0 -19 6 -4 6 -3 8 4 4
6 -3 13 -2 17 4 4 6 11 8 16 4 5 -3 31 -7 57 -9z m-355 -59 c4 -10 1 -13 -8
-9 -8 3 -12 9 -9 14 7 12 11 11 17 -5z m690 -28 c-8 -46 -13 -48 -13 -5 0 21
4 37 10 37 5 0 7 -14 3 -32z m34 10 c-3 -8 -6 -5 -6 6 -1 11 2 17 5 13 3 -3 4
-12 1 -19z m-66 -19 c-9 -22 -10 -22 -10 -3 -1 11 2 24 6 27 12 12 14 0 4 -24z
m-36 -38 c-15 -13 -83 -26 -70 -13 6 6 24 12 40 15 17 2 32 5 35 6 2 0 0 -3
-5 -8z m1035 -6 c-7 -8 -17 -15 -22 -15 -6 0 -5 7 2 15 7 8 17 15 22 15 6 0 5
-7 -2 -15z m-1023 -20 c0 -8 -4 -12 -9 -9 -4 3 -8 0 -8 -5 0 -6 -7 -11 -16
-11 -11 0 -14 -6 -9 -21 6 -17 3 -20 -17 -17 -33 4 -38 45 -6 57 13 4 28 6 34
4 7 -2 15 0 19 6 9 15 12 14 12 -4z m28 5 c3 -5 1 -10 -4 -10 -6 0 -11 5 -11
10 0 6 2 10 4 10 3 0 8 -4 11 -10z m-5 -36 c0 -8 -5 -12 -10 -9 -6 4 -8 11 -5
16 9 14 15 11 15 -7z m920 -342 c-14 -98 -17 -96 -44 19 -21 87 -21 94 12 136
l27 37 7 -64 c4 -36 3 -93 -2 -128z m-1650 157 c0 -6 -4 -7 -10 -4 -5 3 -10
11 -10 16 0 6 5 7 10 4 6 -3 10 -11 10 -16z m31 -16 c0 -5 2 -16 4 -26 2 -9
-1 -15 -6 -11 -5 3 -7 10 -4 15 4 5 1 9 -5 9 -6 0 -13 -7 -16 -15 -4 -8 -10
-15 -16 -15 -5 0 -1 11 9 25 18 24 32 32 34 18z m-91 -179 c11 -21 20 -49 18
-63 l-3 -26 -32 33 c-33 33 -38 47 -27 76 9 24 20 19 44 -20z m-225 -346 c6
-30 4 -38 -7 -38 -8 0 -20 11 -26 25 -15 33 -15 43 1 59 15 17 22 6 32 -46z
m-95 -413 c0 -8 -4 -15 -10 -15 -5 0 -10 7 -10 15 0 8 5 15 10 15 6 0 10 -7
10 -15z m330 -299 c0 -3 -4 -8 -10 -11 -5 -3 -10 -1 -10 4 0 6 5 11 10 11 6 0
10 -2 10 -4z m1068 -52 c37 -18 40 -30 12 -39 -12 -4 -20 -15 -20 -30 0 -14
-7 -25 -20 -28 -17 -4 -19 -11 -14 -31 6 -26 -10 -38 -18 -14 -3 7 -9 8 -18 3
-10 -6 -9 -11 5 -22 18 -12 17 -13 -7 -13 -15 0 -28 -6 -31 -12 -4 -14 -2 8 4
32 3 11 -4 14 -28 12 -26 -3 -32 0 -27 12 3 8 0 24 -6 36 -10 19 -8 26 12 47
31 35 78 63 104 63 11 0 35 -7 52 -16z m-574 -6 c5 -10 7 -10 12 0 9 19 24 14
24 -7 0 -16 9 -21 44 -26 25 -4 49 -4 55 -1 15 10 71 -22 71 -40 0 -14 -10
-16 -61 -12 -33 2 -64 9 -67 15 -4 5 -19 12 -34 15 -21 4 -29 1 -34 -14 -5
-16 -9 -14 -30 17 -13 20 -24 42 -24 50 0 18 36 20 44 3z m-531 -41 c-15 -29
-16 -30 -29 -12 -24 33 -18 52 16 47 l29 -4 -16 -31z m63 -6 c-19 -19 -30 -9
-21 19 5 17 9 19 21 9 13 -11 13 -14 0 -28z m99 10 c7 -12 -12 -24 -25 -16
-11 7 -4 25 10 25 5 0 11 -4 15 -9z m2619 -44 c-11 -30 -74 -34 -74 -6 0 14
63 39 73 30 4 -4 5 -15 1 -24z m6 -101 c0 -7 -6 -21 -14 -32 -11 -15 -17 -16
-27 -7 -9 9 -8 18 5 38 17 25 36 26 36 1z m-100 -40 c7 -19 16 -24 40 -24 16
1 33 -2 37 -5 3 -4 -2 -7 -13 -7 -10 0 -32 -9 -48 -19 -36 -24 -56 -17 -56 19
0 59 23 79 40 36z m-2954 -31 c3 -14 10 -25 15 -25 5 0 9 -4 9 -10 0 -20 -25
-9 -37 17 -16 32 -16 43 -3 43 5 0 12 -11 16 -25z m2898 -33 c2 -4 1 -14 -4
-22 -7 -11 -12 -12 -21 -3 -6 6 -8 16 -5 22 8 13 23 14 30 3z m126 -28 c0 -8
-4 -12 -10 -9 -5 3 -10 10 -10 16 0 5 5 9 10 9 6 0 10 -7 10 -16z m-45 -93 c3
-5 1 -12 -5 -16 -5 -3 -10 -17 -10 -29 0 -13 -7 -29 -15 -36 -8 -6 -17 -21
-21 -33 -7 -24 -43 -56 -61 -57 -23 0 -13 38 17 67 19 18 30 38 30 55 0 21 5
28 20 28 11 0 20 7 20 15 0 17 16 20 25 6z"/>
<path d="M2399 3953 c-13 -16 -12 -17 4 -4 16 13 21 21 13 21 -2 0 -10 -8 -17
-17z"/>
<path d="M1890 2424 c-17 -9 -20 -14 -9 -14 9 0 22 7 29 15 15 18 13 18 -20
-1z"/>
<path d="M1680 2420 c0 -5 5 -10 11 -10 5 0 7 5 4 10 -3 6 -8 10 -11 10 -2 0
-4 -4 -4 -10z"/>
<path d="M1831 2364 c0 -11 3 -14 6 -6 3 7 2 16 -1 19 -3 4 -6 -2 -5 -13z"/>
<path d="M1617 2293 c3 -7 9 -10 14 -7 14 8 11 21 -5 21 -8 0 -12 -6 -9 -14z"/>
<path d="M1524 2219 c-4 -7 -3 -9 4 -5 5 3 13 0 15 -6 4 -9 6 -10 6 -1 1 17
-16 25 -25 12z"/>
<path d="M1340 2196 c0 -2 9 -6 20 -9 11 -3 18 -1 14 4 -5 9 -34 13 -34 5z"/>
<path d="M1432 2179 c-10 -15 -9 -17 3 -13 9 4 15 0 15 -7 0 -8 11 -15 24 -15
30 -2 25 29 -8 44 -18 8 -25 6 -34 -9z"/>
<path d="M1513 2184 c-16 -7 -5 -34 14 -34 12 0 13 3 4 13 -6 8 -8 17 -4 20 7
8 4 8 -14 1z"/>
<path d="M1338 2143 c7 -3 16 -2 19 1 4 3 -2 6 -13 5 -11 0 -14 -3 -6 -6z"/>
<path d="M1530 2142 c-15 -5 -30 -21 -30 -33 0 -3 16 -5 35 -2 26 2 33 0 29
-10 -3 -8 2 -14 10 -14 8 0 13 4 10 9 -3 4 -1 8 5 8 5 0 13 -5 16 -10 4 -6 11
-8 16 -4 5 3 7 10 3 15 -10 16 -78 46 -94 41z"/>
<path d="M1505 1911 c-3 -5 0 -13 6 -17 7 -4 9 -3 5 4 -3 5 0 13 6 15 9 4 10
6 1 6 -6 1 -14 -3 -18 -8z"/>
<path d="M1254 5001 c0 -12 6 -17 18 -13 10 2 18 11 18 18 0 8 -8 14 -18 14
-11 0 -18 -7 -18 -19z"/>
<path d="M1270 4957 c-12 -21 -12 -21 6 -7 10 8 20 15 22 16 2 1 -1 4 -5 7 -5
3 -15 -4 -23 -16z"/>
<path d="M1652 4856 c7 -8 15 -12 17 -11 5 6 -10 25 -20 25 -5 0 -4 -6 3 -14z"/>
<path d="M1970 4860 c0 -5 5 -10 10 -10 6 0 10 5 10 10 0 6 -4 10 -10 10 -5 0
-10 -4 -10 -10z"/>
<path d="M1157 4849 c7 -7 15 -10 18 -7 3 3 -2 9 -12 12 -14 6 -15 5 -6 -5z"/>
<path d="M1760 4800 c0 -5 5 -10 11 -10 5 0 7 5 4 10 -3 6 -8 10 -11 10 -2 0
-4 -4 -4 -10z"/>
<path d="M2064 4769 c-3 -6 -2 -15 3 -20 5 -5 9 -1 9 11 0 23 -2 24 -12 9z"/>
<path d="M1841 4724 c0 -11 3 -14 6 -6 3 7 2 16 -1 19 -3 4 -6 -2 -5 -13z"/>
<path d="M1840 4665 c0 -5 5 -17 10 -25 5 -8 10 -10 10 -5 0 6 -5 17 -10 25
-5 8 -10 11 -10 5z"/>
<path d="M1870 4654 c0 -8 5 -12 10 -9 6 3 10 10 10 16 0 5 -4 9 -10 9 -5 0
-10 -7 -10 -16z"/>
<path d="M1950 4656 c0 -8 5 -18 10 -21 6 -3 10 3 10 14 0 12 -4 21 -10 21 -5
0 -10 -6 -10 -14z"/>
<path d="M1874 4612 c1 -18 24 -38 33 -28 4 3 1 6 -5 6 -7 0 -12 6 -12 14 0 8
-4 17 -9 20 -5 3 -8 -2 -7 -12z"/>
<path d="M1931 4600 c-1 -14 -8 -34 -16 -44 -19 -25 -19 -37 0 -30 8 4 15 15
15 26 0 10 4 17 9 14 5 -3 12 1 15 10 3 8 2 12 -3 9 -5 -3 -12 5 -14 17 -4 22
-4 22 -6 -2z"/>
<path d="M2007 4598 c-5 -18 3 -48 14 -48 12 0 12 47 0 54 -5 4 -11 0 -14 -6z"/>
<path d="M2170 4580 c0 -5 -6 -10 -14 -10 -14 0 -16 -23 -3 -36 4 -4 7 -16 7
-27 0 -11 3 -18 6 -14 8 8 17 97 10 97 -3 0 -6 -4 -6 -10z"/>
<path d="M2090 4551 c0 -6 4 -13 10 -16 6 -3 7 1 4 9 -7 18 -14 21 -14 7z"/>
<path d="M2122 4518 c2 -25 6 -44 10 -42 8 5 1 74 -8 83 -3 3 -4 -15 -2 -41z"/>
<path d="M1860 4546 c0 -4 7 -14 15 -22 8 -9 15 -11 15 -6 0 5 -7 15 -15 22
-8 7 -15 9 -15 6z"/>
<path d="M1937 4519 c-3 -12 -10 -18 -16 -14 -6 3 -11 1 -11 -5 0 -7 7 -9 16
-6 13 5 15 1 10 -18 -3 -14 -2 -28 4 -31 6 -4 10 13 10 44 0 54 -4 64 -13 30z"/>
<path d="M1853 4495 c-3 -9 -3 -18 -1 -21 3 -3 8 4 11 16 6 23 -1 27 -10 5z"/>
<path d="M2061 4494 c0 -11 3 -14 6 -6 3 7 2 16 -1 19 -3 4 -6 -2 -5 -13z"/>
<path d="M1881 4424 c0 -11 3 -14 6 -6 3 7 2 16 -1 19 -3 4 -6 -2 -5 -13z"/>
<path d="M1942 4410 c0 -14 2 -19 5 -12 2 6 2 18 0 25 -3 6 -5 1 -5 -13z"/>
<path d="M1576 4363 c-15 -4 -16 -7 -5 -15 10 -7 3 -8 -23 -4 -21 2 -38 1 -38
-4 0 -5 -15 -4 -32 0 -18 5 -45 8 -61 6 -15 -2 -30 1 -33 5 -9 15 -21 10 -27
-12 -5 -19 -11 -21 -49 -16 -32 5 -37 4 -20 -3 12 -5 22 -14 22 -20 0 -6 -4
-9 -8 -6 -5 3 -25 0 -45 -6 -43 -13 -36 -32 16 -44 18 -3 38 -11 46 -18 8 -6
16 -10 18 -8 9 6 23 1 18 -8 -3 -6 1 -7 9 -4 10 4 16 1 16 -9 0 -22 -11 -47
-21 -47 -4 0 -6 7 -3 15 4 9 0 15 -8 15 -10 0 -13 -9 -10 -30 4 -25 1 -30 -16
-30 -12 0 -23 -4 -26 -9 -3 -4 7 -6 22 -5 15 2 21 1 13 -2 -8 -4 -25 -16 -37
-28 -43 -39 -52 -45 -88 -51 -19 -4 -40 -13 -47 -21 -6 -8 -17 -14 -24 -14 -7
0 -24 -9 -38 -20 -14 -11 -34 -20 -45 -20 -11 0 -22 -4 -24 -10 -1 -5 -15 -11
-30 -12 -16 -1 -28 -8 -28 -15 0 -7 -11 -13 -25 -13 -14 0 -25 -5 -25 -11 0
-5 4 -8 8 -5 5 3 7 -10 6 -27 -2 -18 1 -39 6 -46 10 -18 105 -27 114 -12 4 6
19 11 33 11 20 0 23 -3 14 -14 -9 -11 -8 -15 6 -19 10 -2 27 -8 37 -13 16 -6
18 -4 13 15 -7 30 10 35 60 17 22 -8 66 -17 97 -21 31 -4 55 -9 53 -11 -2 -2
-37 -6 -77 -8 -54 -4 -79 -1 -96 11 -13 8 -24 11 -24 5 0 -5 10 -12 21 -15 15
-4 20 -11 15 -22 -3 -10 -2 -14 5 -10 6 4 9 0 7 -11 -2 -15 8 -20 52 -30 30
-6 47 -12 38 -13 -19 -1 -26 -21 -7 -21 5 0 7 -4 4 -10 -3 -6 1 -7 9 -4 19 7
20 -5 3 -26 -16 -19 -58 -24 -69 -8 -5 9 -8 8 -8 -5 0 -10 -5 -15 -11 -12 -5
4 -21 8 -35 10 -18 2 -22 -1 -14 -10 5 -6 6 -16 2 -21 -4 -4 2 -2 13 6 19 15
19 15 2 -12 -22 -34 -22 -44 0 -27 15 12 16 12 10 -4 -4 -10 -3 -16 2 -13 9 6
45 -40 55 -70 3 -11 14 -20 25 -20 12 0 17 5 13 15 -4 11 0 13 16 9 12 -4 22
-3 22 2 0 4 11 6 24 5 16 -2 23 2 22 13 -1 10 12 19 33 26 19 5 38 19 44 33 7
16 17 23 29 20 11 -3 15 -1 11 6 -4 6 0 8 10 4 12 -4 14 -2 10 10 -5 12 -3 14
7 8 10 -6 12 -4 6 11 -4 10 -4 15 0 12 4 -4 18 2 32 12 13 11 31 20 39 20 8 0
21 7 30 15 8 8 19 13 24 10 5 -4 6 0 4 8 -3 7 3 22 15 32 11 10 20 13 20 7 0
-7 5 -12 11 -12 5 0 7 5 4 11 -4 6 3 21 16 35 12 13 19 24 15 24 -4 0 2 9 13
21 11 12 18 30 15 42 -2 12 1 24 8 28 6 4 2 9 -11 14 -11 3 -21 14 -22 23 0
14 -2 14 -8 -2 -7 -18 -8 -18 -14 -3 -3 9 -2 18 3 19 28 4 35 2 35 -9 0 -7 5
-12 10 -10 6 1 9 4 9 7 -1 3 -5 31 -9 63 -3 33 -11 71 -16 85 -8 21 -7 29 8
40 17 13 16 14 -6 7 -15 -5 -21 -3 -17 3 3 6 20 13 36 17 20 4 28 11 23 18
-13 21 -13 39 1 28 9 -7 12 -4 13 12 1 12 7 23 13 25 5 2 15 13 22 25 10 21
10 21 -7 7 -17 -14 -18 -14 -6 8 14 27 12 32 -18 35 -13 1 -20 6 -17 14 3 7 1
15 -5 18 -5 4 -7 9 -5 13 2 4 -7 8 -21 9 -14 0 -28 5 -32 10 -3 5 -16 8 -28 7
-13 -1 -23 3 -23 8 0 6 -7 7 -15 4 -10 -3 -18 1 -22 11 -6 15 -7 15 -13 -1 -6
-17 -7 -17 -22 -2 -9 9 -18 15 -20 15 -2 -1 -12 -4 -22 -6z m-246 -376 c-14
-6 -28 -16 -32 -22 -4 -5 -8 -7 -8 -3 0 3 -28 -4 -62 -18 -67 -26 -87 -24 -48
7 30 23 104 48 145 48 l30 0 -25 -12z m30 -71 c0 -20 -39 -46 -56 -39 -11 4
-12 9 -3 19 6 8 8 14 3 14 -5 0 -2 5 6 10 22 14 50 12 50 -4z m180 -28 c0 -20
-16 -41 -28 -37 -6 3 -6 13 -1 27 9 23 29 30 29 10z m-267 -34 c10 -21 30 -41
50 -50 l32 -15 -45 6 c-50 7 -112 34 -118 52 -3 10 40 41 59 43 3 0 13 -16 22
-36z m452 -14 c3 -5 -1 -10 -9 -10 -8 0 -18 5 -21 10 -3 6 1 10 9 10 8 0 18
-4 21 -10z m-590 -10 c-3 -5 -12 -10 -18 -10 -7 0 -6 4 3 10 19 12 23 12 15 0z
m255 -210 c-6 -11 -13 -20 -16 -20 -3 0 -2 6 2 13 4 6 -3 3 -16 -8 -13 -11
-20 -14 -15 -6 6 11 4 13 -10 7 -18 -7 -18 -6 0 14 10 11 29 20 42 20 21 0 22
-3 13 -20z"/>
<path d="M1956 4353 c-6 -14 -5 -15 5 -6 7 7 10 15 7 18 -3 3 -9 -2 -12 -12z"/>
<path d="M1310 4356 c0 -2 8 -10 18 -17 15 -13 16 -12 3 4 -13 16 -21 21 -21
13z"/>
<path d="M1185 4331 c-3 -6 -13 -10 -23 -10 -31 1 -56 -8 -60 -20 -5 -15 53
-10 86 8 16 9 27 9 43 1 11 -6 25 -9 32 -7 7 2 -2 11 -20 20 -37 19 -49 21
-58 8z"/>
<path d="M1065 4290 c-4 -6 -10 -8 -15 -5 -5 3 -11 1 -14 -4 -5 -8 15 -8 34
-1 3 1 9 2 13 1 5 -1 6 3 2 9 -8 13 -12 13 -20 0z"/>
<path d="M730 4245 c0 -8 2 -15 4 -15 2 0 6 7 10 15 3 8 1 15 -4 15 -6 0 -10
-7 -10 -15z"/>
<path d="M970 4245 c0 -8 0 -18 1 -21 0 -4 -5 -11 -13 -16 -10 -8 -10 -9 2 -5
8 2 16 9 16 15 1 7 2 17 3 23 0 6 10 8 24 4 17 -5 19 -4 7 4 -22 15 -40 13
-40 -4z"/>
<path d="M1200 4240 c0 -5 5 -10 11 -10 5 0 7 5 4 10 -3 6 -8 10 -11 10 -2 0
-4 -4 -4 -10z"/>
<path d="M930 4180 c0 -5 5 -10 10 -10 6 0 10 5 10 10 0 6 -4 10 -10 10 -5 0
-10 -4 -10 -10z"/>
<path d="M3150 4181 c0 -6 4 -12 8 -15 5 -3 9 1 9 9 0 8 -4 15 -9 15 -4 0 -8
-4 -8 -9z"/>
<path d="M3215 4160 c-3 -5 -1 -10 4 -10 6 0 11 5 11 10 0 6 -2 10 -4 10 -3 0
-8 -4 -11 -10z"/>
<path d="M1945 4130 c-3 -6 1 -7 9 -4 18 7 21 14 7 14 -6 0 -13 -4 -16 -10z"/>
<path d="M938 4123 c7 -3 16 -2 19 1 4 3 -2 6 -13 5 -11 0 -14 -3 -6 -6z"/>
<path d="M710 3765 c0 -8 5 -15 10 -15 6 0 10 7 10 15 0 8 -4 15 -10 15 -5 0
-10 -7 -10 -15z"/>
<path d="M700 3550 c0 -5 5 -10 10 -10 6 0 10 5 10 10 0 6 -4 10 -10 10 -5 0
-10 -4 -10 -10z"/>
<path d="M1380 3419 c0 -5 -4 -7 -10 -4 -5 3 -19 1 -30 -5 -23 -12 -28 -45 -5
-37 8 4 17 2 20 -4 4 -5 11 -6 17 -3 7 4 8 2 4 -4 -4 -7 -13 -12 -19 -12 -7 0
-13 -8 -14 -18 -2 -19 32 -26 35 -7 8 45 12 105 7 105 -3 0 -5 -5 -5 -11z"/>
<path d="M1548 3408 c-16 -5 -28 -14 -28 -19 0 -6 5 -7 10 -4 6 3 10 1 10 -4
0 -6 -4 -11 -10 -11 -5 0 -10 -13 -10 -30 0 -30 -1 -30 -57 -31 -32 -1 -62 -1
-66 0 -5 1 -6 -3 -2 -9 11 -18 -5 -31 -20 -16 -19 18 -48 14 -51 -7 -3 -20 7
-22 23 -6 9 9 11 7 9 -6 -1 -10 -10 -23 -19 -30 -20 -14 -23 -30 -4 -19 9 6 9
4 -1 -8 -16 -21 -14 -131 4 -175 14 -36 59 -63 104 -63 28 0 30 3 30 35 0 28
-4 35 -20 35 -40 0 -60 35 -60 103 0 39 -4 57 -9 48 -5 -7 -14 -10 -20 -7 -18
11 -13 26 9 26 17 0 25 14 22 41 -1 3 17 3 38 -1 26 -5 41 -3 44 4 3 7 5 7 5
-1 1 -7 7 -10 15 -7 8 3 17 1 21 -5 8 -14 -16 -39 -32 -34 -6 2 -17 -6 -24
-19 -11 -21 -11 -22 4 -9 10 7 17 10 17 5 -1 -14 -24 -39 -40 -42 -27 -6 -34
-21 -7 -17 14 3 29 0 33 -6 4 -7 3 -9 -3 -6 -17 10 -35 -20 -28 -43 5 -15 13
-20 25 -17 20 5 35 -17 23 -36 -5 -8 -2 -8 9 0 8 7 17 11 20 8 2 -3 3 10 1 28
l-3 32 10 -32 c6 -17 22 -41 37 -53 23 -18 28 -19 35 -5 12 20 37 19 59 -1 17
-16 18 -15 16 15 -2 27 -17 46 -17 21 0 -6 -13 2 -30 17 -27 23 -30 33 -30 82
0 40 3 52 10 41 8 -12 10 -10 10 11 0 14 3 29 8 33 4 4 7 12 7 18 0 6 8 12 18
14 24 3 24 4 32 37 6 24 5 27 -19 27 -18 0 -24 4 -20 15 9 22 -3 45 -20 39 -8
-3 -12 -12 -10 -19 3 -7 1 -16 -5 -20 -7 -4 -11 8 -11 35 0 25 -4 39 -10 35
-6 -4 -8 -11 -5 -16 3 -5 -1 -6 -10 -3 -14 6 -14 8 1 25 19 21 19 21 -18 7z
m-36 -250 c-8 -8 -9 -4 -5 13 4 13 8 18 11 10 2 -7 -1 -18 -6 -23z"/>
<path d="M1860 3406 c0 -2 7 -7 16 -10 8 -3 12 -2 9 4 -6 10 -25 14 -25 6z"/>
<path d="M1743 3364 c-3 -8 -11 -13 -18 -10 -7 2 -18 -7 -24 -20 -15 -33 -14
-34 9 -34 23 0 70 45 70 66 0 19 -29 18 -37 -2z"/>
<path d="M1785 3350 c-3 -5 -1 -10 4 -10 6 0 11 5 11 10 0 6 -2 10 -4 10 -3 0
-8 -4 -11 -10z"/>
<path d="M1804 3311 c-38 -10 -54 -19 -54 -33 0 -7 6 -6 15 2 8 7 15 9 15 4 0
-5 4 -3 9 5 5 7 14 10 20 7 6 -4 8 -12 5 -18 -4 -6 5 -3 19 8 44 32 35 40 -29
25z"/>
<path d="M1010 3301 c0 -8 -8 -11 -19 -8 -18 4 -19 -3 -17 -128 1 -126 2 -135
25 -159 25 -27 48 -35 35 -13 -4 6 2 4 13 -5 21 -20 68 -24 78 -8 3 6 11 10
16 10 6 0 7 -4 4 -10 -7 -11 54 -2 71 11 6 5 13 6 16 3 3 -3 6 33 5 80 -1 83
-1 84 -19 64 -14 -17 -16 -23 -6 -30 8 -5 2 -6 -14 -2 -18 4 -28 2 -28 -6 0
-6 4 -9 8 -6 4 2 6 -11 4 -30 -2 -19 -8 -34 -13 -34 -5 0 -8 -3 -8 -7 3 -21
-3 -22 -31 -8 -23 12 -30 12 -30 3 0 -9 -3 -10 -8 -2 -4 6 -17 16 -29 23 -18
9 -23 20 -23 51 0 21 -5 42 -11 46 -8 4 -7 9 2 14 10 7 10 11 0 24 -11 12 -11
16 -1 16 10 0 10 3 0 15 -14 16 -34 10 -24 -7 4 -7 2 -8 -4 -4 -6 4 -8 14 -5
23 4 10 2 14 -4 10 -5 -3 -10 0 -10 8 0 17 13 20 22 5 12 -19 24 0 20 31 -4
32 -15 53 -15 30z"/>
<path d="M1184 3299 c-3 -6 -2 -15 3 -20 5 -5 9 -1 10 11 2 22 -2 25 -13 9z"/>
<path d="M1207 3268 c-15 -16 -22 -28 -15 -25 7 2 20 1 28 -3 12 -6 16 -1 17
26 2 19 2 33 0 33 -1 -1 -15 -15 -30 -31z"/>
<path d="M1283 3274 c0 -7 6 -10 14 -7 7 3 13 8 13 12 0 4 -6 8 -13 8 -8 0
-14 -6 -14 -13z"/>
<path d="M1437 3205 c-11 -16 -13 -23 -5 -20 15 6 42 45 31 45 -5 0 -16 -12
-26 -25z"/>
<path d="M3158 3195 c-2 -19 0 -35 4 -35 4 0 8 3 9 8 4 40 4 62 -2 62 -4 0 -9
-16 -11 -35z"/>
<path d="M735 3210 c3 -5 8 -10 11 -10 2 0 4 5 4 10 0 6 -5 10 -11 10 -5 0 -7
-4 -4 -10z"/>
<path d="M1190 3194 c-8 -8 -9 -14 -4 -13 33 6 37 -4 9 -26 -16 -13 -26 -27
-22 -31 4 -5 21 7 37 24 16 18 24 32 18 32 -7 0 -6 5 2 15 10 12 9 15 -8 15
-11 0 -25 -7 -32 -16z"/>
<path d="M1858 3183 c6 -2 18 -2 25 0 6 3 1 5 -13 5 -14 0 -19 -2 -12 -5z"/>
<path d="M1415 3160 c-3 -6 1 -7 9 -4 18 7 21 14 7 14 -6 0 -13 -4 -16 -10z"/>
<path d="M566 3107 c-7 -36 2 -97 14 -97 9 0 30 46 30 65 0 19 -22 65 -30 65
-4 0 -11 -15 -14 -33z"/>
<path d="M622 3090 c0 -14 2 -19 5 -12 2 6 2 18 0 25 -3 6 -5 1 -5 -13z"/>
<path d="M1620 2990 c0 -5 5 -10 11 -10 5 0 7 5 4 10 -3 6 -8 10 -11 10 -2 0
-4 -4 -4 -10z"/>
<path d="M855 2940 c3 -5 8 -10 11 -10 2 0 4 5 4 10 0 6 -5 10 -11 10 -5 0 -7
-4 -4 -10z"/>
<path d="M340 2810 c0 -5 9 -10 20 -10 11 0 20 5 20 10 0 6 -9 10 -20 10 -11
0 -20 -4 -20 -10z"/>
<path d="M410 2810 c0 -5 7 -10 15 -10 8 0 15 5 15 10 0 6 -7 10 -15 10 -8 0
-15 -4 -15 -10z"/>
<path d="M3100 2680 c0 -5 5 -10 10 -10 6 0 10 5 10 10 0 6 -4 10 -10 10 -5 0
-10 -4 -10 -10z"/>
<path d="M3137 2517 c-3 -8 17 -46 44 -85 27 -40 49 -78 49 -85 1 -15 49 -106
49 -92 1 14 -25 85 -43 120 -9 17 -16 34 -16 38 0 5 -12 33 -26 63 -25 52 -46
68 -57 41z"/>
<path d="M920 2501 c0 -5 5 -13 10 -16 6 -3 10 -2 10 4 0 5 -4 13 -10 16 -5 3
-10 2 -10 -4z"/>
<path d="M2 1860 c0 -14 2 -19 5 -12 2 6 2 18 0 25 -3 6 -5 1 -5 -13z"/>
<path d="M1137 1233 c-6 -11 10 -53 21 -53 4 0 13 5 20 12 9 9 8 16 -5 30 -17
19 -29 23 -36 11z"/>
<path d="M768 853 c6 -2 18 -2 25 0 6 3 1 5 -13 5 -14 0 -19 -2 -12 -5z"/>
<path d="M1210 475 c7 -8 16 -15 21 -15 5 0 9 7 9 15 0 9 -9 15 -21 15 -18 0
-19 -2 -9 -15z"/>
<path d="M1332 100 c0 -40 2 -47 7 -26 9 42 29 44 34 4 l5 -33 -2 35 c-1 24
-6 35 -16 35 -8 0 -18 9 -22 20 -3 11 -6 -4 -6 -35z"/>
<path d="M1933 100 c0 -30 1 -47 4 -37 5 18 5 18 25 0 21 -18 21 -18 9 5 -10
19 -10 27 1 40 10 13 8 13 -9 -1 -21 -19 -22 -19 -26 15 -2 20 -4 11 -4 -22z"/>
<path d="M2370 141 c0 -5 -3 -16 -6 -25 -4 -12 0 -16 15 -16 26 0 29 -36 4
-43 -15 -4 -15 -5 -2 -6 26 -2 44 26 29 44 -7 8 -19 15 -26 15 -18 0 -6 28 14
33 12 3 10 5 -5 6 -13 0 -23 -3 -23 -8z"/>
<path d="M2445 140 c-11 -18 -9 -70 4 -83 29 -29 68 45 40 79 -13 16 -35 18
-44 4z m40 -41 c0 -24 -5 -34 -15 -34 -16 0 -25 37 -16 62 10 26 31 8 31 -28z"/>
<path d="M2527 143 c-13 -12 -7 -42 10 -52 15 -8 15 -11 3 -27 -10 -11 -10
-15 -2 -10 6 4 19 21 28 37 12 24 13 34 3 45 -12 15 -31 18 -42 7z m38 -23 c0
-8 -8 -16 -17 -18 -13 -2 -18 3 -18 18 0 15 5 20 18 18 9 -2 17 -10 17 -18z"/>
<path d="M2607 143 c-12 -21 -6 -84 9 -90 26 -10 44 18 35 57 -6 32 -33 52
-44 33z m33 -19 c0 -9 -5 -14 -12 -12 -18 6 -21 28 -4 28 9 0 16 -7 16 -16z
m5 -44 c0 -8 -8 -16 -17 -18 -13 -2 -18 3 -18 18 0 15 5 20 18 18 9 -2 17 -10
17 -18z"/>
<path d="M2687 143 c-4 -3 -7 -11 -7 -17 0 -6 5 -5 12 2 16 16 28 15 28 -3 0
-8 -5 -15 -12 -15 -6 0 -4 -6 7 -13 10 -8 15 -19 11 -25 -10 -16 -33 -15 -39
1 -4 9 -6 9 -6 -1 -1 -18 27 -26 43 -13 14 12 15 58 2 79 -8 13 -29 16 -39 5z"/>
<path d="M2767 143 c-13 -12 -7 -42 10 -52 15 -8 15 -11 3 -27 -10 -11 -10
-15 -2 -10 6 4 19 21 28 37 12 24 13 34 3 45 -12 15 -31 18 -42 7z m38 -23 c0
-8 -8 -16 -17 -18 -13 -2 -18 3 -18 18 0 15 5 20 18 18 9 -2 17 -10 17 -18z"/>
<path d="M2847 143 c-12 -21 -6 -84 9 -90 26 -10 44 18 35 57 -6 32 -33 52
-44 33z m33 -19 c0 -9 -5 -14 -12 -12 -18 6 -21 28 -4 28 9 0 16 -7 16 -16z
m5 -44 c0 -8 -8 -16 -17 -18 -13 -2 -18 3 -18 18 0 15 5 20 18 18 9 -2 17 -10
17 -18z"/>
<path d="M2942 143 l28 -4 -20 -39 c-28 -56 -24 -64 5 -10 31 58 31 60 -7 59
-31 -2 -31 -2 -6 -6z"/>
<path d="M3016 126 c-30 -47 -9 -97 29 -66 21 18 19 41 -5 47 -16 4 -18 8 -9
19 7 8 10 17 7 20 -3 2 -13 -7 -22 -20z m29 -46 c0 -8 -8 -16 -17 -18 -13 -2
-18 3 -18 18 0 15 5 20 18 18 9 -2 17 -10 17 -18z"/>
<path d="M1517 124 c-9 -10 9 -68 23 -72 12 -4 13 -2 3 9 -16 17 -17 46 -1 51
8 3 6 6 -4 10 -9 4 -18 5 -21 2z"/>
<path d="M943 85 c10 -35 27 -48 27 -20 0 8 -4 15 -10 15 -5 0 -10 9 -10 20 0
11 -4 20 -9 20 -5 0 -4 -15 2 -35z"/>
<path d="M976 111 c-5 -7 -4 -16 1 -20 5 -3 13 -15 17 -26 8 -18 10 -16 24 15
l15 35 10 -32 c10 -34 27 -45 27 -18 0 8 -4 15 -10 15 -5 0 -10 9 -10 21 0 29
-33 21 -40 -11 l-6 -25 -10 30 c-7 21 -13 25 -18 16z"/>
<path d="M1076 111 c-5 -7 -4 -16 1 -20 5 -3 13 -15 17 -26 8 -18 10 -16 24
15 l15 35 10 -32 c10 -34 27 -45 27 -18 0 8 -4 15 -10 15 -5 0 -10 9 -10 21 0
29 -33 21 -40 -11 l-6 -25 -10 30 c-7 21 -13 25 -18 16z"/>
<path d="M1175 110 c-4 -7 -3 -15 2 -19 5 -3 13 -15 17 -26 6 -17 9 -17 15 -5
17 30 24 63 12 56 -6 -4 -11 -17 -12 -29 -1 -19 -2 -19 -13 7 -9 20 -16 25
-21 16z"/>
<path d="M1274 108 c-4 -6 0 -16 9 -23 22 -16 21 -22 0 -28 -16 -4 -16 -5 -1
-6 26 -2 33 20 12 36 -16 12 -17 15 -4 23 9 6 10 10 3 10 -6 0 -15 -5 -19 -12z"/>
<path d="M1404 91 c0 -21 7 -36 16 -38 10 -3 11 -2 3 4 -6 4 -13 22 -16 38 -4
27 -5 27 -3 -4z"/>
<path d="M1443 85 c0 -22 2 -30 4 -17 2 12 2 30 0 40 -3 9 -5 -1 -4 -23z"/>
<path d="M1469 88 c4 -17 13 -34 21 -36 12 -4 13 -2 3 9 -7 7 -13 21 -13 30 0
10 6 20 13 22 6 3 2 6 -9 6 -19 1 -21 -3 -15 -31z"/>
<path d="M1574 106 c-11 -28 0 -51 26 -53 22 -1 22 -1 3 4 -29 6 -30 23 -2 23
14 0 19 5 17 17 -4 23 -36 29 -44 9z m36 -6 c0 -5 -7 -10 -15 -10 -8 0 -15 5
-15 10 0 6 7 10 15 10 8 0 15 -4 15 -10z"/>
<path d="M1641 81 c1 -28 3 -30 6 -11 3 14 9 30 14 36 5 7 3 11 -6 11 -11 0
-15 -11 -14 -36z"/>
<path d="M1694 108 c-4 -6 0 -16 9 -23 22 -16 21 -22 0 -28 -16 -4 -16 -5 -1
-6 26 -2 33 20 12 36 -16 12 -17 15 -4 23 9 6 10 10 3 10 -6 0 -15 -5 -19 -12z"/>
<path d="M1749 88 c4 -17 13 -34 20 -36 10 -3 11 0 5 9 -13 22 -14 43 -1 51 8
5 4 8 -9 8 -19 0 -21 -4 -15 -32z"/>
<path d="M1807 114 c-13 -13 -7 -55 9 -61 24 -9 51 23 38 45 -12 19 -36 27
-47 16z m36 -16 c6 -19 -3 -38 -19 -38 -8 0 -14 10 -14 25 0 26 25 35 33 13z"/>
<path d="M1874 106 c-9 -23 0 -51 16 -52 9 0 10 1 3 3 -20 7 -16 51 5 56 16 4
16 5 -1 6 -10 0 -20 -5 -23 -13z"/>
<path d="M2034 106 c-9 -23 0 -51 16 -52 9 0 10 1 3 3 -20 7 -16 51 5 56 16 4
16 5 -1 6 -10 0 -20 -5 -23 -13z"/>
<path d="M2097 114 c-13 -13 -7 -55 9 -61 24 -9 51 23 38 45 -12 19 -36 27
-47 16z m37 -13 c9 -14 -4 -41 -20 -41 -8 0 -14 10 -14 25 0 25 23 35 34 16z"/>
<path d="M2163 85 c0 -22 2 -30 4 -17 2 12 2 30 0 40 -3 9 -5 -1 -4 -23z"/>
<path d="M2187 112 c6 -4 13 -21 16 -37 l4 -30 2 33 c1 41 23 39 33 -4 6 -27
6 -27 5 6 -2 32 -4 35 -36 37 -19 1 -30 -2 -24 -5z"/>
</g>
</svg>
